<?xml version="1.0" encoding="UTF-8" standalone="no"?>
<!DOCTYPE svg PUBLIC "-//W3C//DTD SVG 20010904//EN"
        "http://www.w3.org/TR/2001/REC-SVG-20010904/DTD/svg10.dtd">

<svg xmlns="http://www.w3.org/2000/svg" viewBox="0 0 256 256">
  <symbol id="icon" viewBox="0 0 256 256">
    <path
            d="M 17.27,170.13
           C 17.27,170.13 41.85,172.53 41.85,172.53
             41.85,172.53 138.83,75.55 138.83,75.55
             138.83,75.55 138.83,33.60 138.83,33.60
             138.83,26.39 130.55,22.38 124.67,26.92
             124.67,26.92 55.74,83.30 55.74,83.30
             55.74,83.30 17.27,87.04 17.27,87.04
             9.25,87.84 3.11,94.52 3.11,102.53
             3.11,102.53 3.11,154.63 3.11,154.63
             3.11,162.65 9.25,169.32 17.27,170.13
             17.27,170.13 17.27,170.13 17.27,170.13 Z
           M 252.91,14.90
           C 252.91,14.90 240.62,2.61 240.62,2.61
             239.28,1.28 237.14,1.28 235.81,2.61
             235.81,2.61 1.24,237.18 1.24,237.18
             -0.10,238.52 -0.10,240.66 1.24,241.99
             1.24,241.99 13.53,254.28 13.53,254.28
             14.87,255.62 17.00,255.62 18.34,254.28
             18.34,254.28 79.52,193.10 79.52,193.10
             79.52,193.10 124.67,229.97 124.67,229.97
             130.28,234.51 138.83,230.50 138.83,223.29
             138.83,223.29 138.83,133.79 138.83,133.79
             138.83,133.79 180.24,92.38 180.24,92.38
             185.85,103.07 189.06,115.09 189.06,128.18
             189.06,146.35 182.91,162.91 172.22,176.00
             170.35,178.14 170.89,181.34 172.76,183.22
             172.76,183.22 182.11,191.77 182.11,191.77
             184.52,193.90 187.99,193.37 189.86,190.96
             203.75,173.87 212.03,151.96 212.03,127.91
             212.03,108.68 206.42,90.51 197.07,75.02
             197.07,75.02 208.56,63.53 208.56,63.53
             220.85,81.96 228.06,103.87 228.06,127.65
             228.06,155.70 217.91,181.61 201.35,201.65
             199.47,203.79 199.74,206.99 201.88,208.87
             201.88,208.87 211.23,217.42 211.23,217.42
             213.37,219.55 216.84,219.29 218.98,216.88
             239.28,192.57 251.31,161.58 251.31,127.65
             251.31,97.46 241.69,69.67 225.39,46.70
             225.39,46.70 253.18,18.91 253.18,18.91
             254.24,18.38 254.24,16.24 252.91,14.90
             252.91,14.90 252.91,14.90 252.91,14.90 Z" />
  </symbol>
</svg>