<?xml version="1.0" encoding="UTF-8" standalone="no"?>
<!DOCTYPE svg PUBLIC "-//W3C//DTD SVG 20010904//EN"
        "http://www.w3.org/TR/2001/REC-SVG-20010904/DTD/svg10.dtd">

<svg xmlns="http://www.w3.org/2000/svg" viewBox="0 0 256 256">
  <symbol id="icon" viewBox="0 0 256 256">
    <path
            d="M 125.83,25.89
           C 125.83,25.89 56.05,82.99 56.05,82.99
             56.05,82.99 16.93,86.69 16.93,86.69
             8.74,87.48 2.66,94.35 2.66,102.28
             2.66,102.28 2.66,155.15 2.66,155.15
             2.66,163.34 8.74,170.21 16.93,170.74
             16.93,170.74 56.05,174.44 56.05,174.44
             56.05,174.44 125.83,231.54 125.83,231.54
             131.65,236.29 140.11,232.06 140.11,224.66
             140.11,224.66 140.11,32.50 140.11,32.50
             139.84,25.36 131.38,21.14 125.83,25.89
             125.83,25.89 125.83,25.89 125.83,25.89 Z
           M 191.65,65.01
           C 189.80,62.64 186.10,62.11 183.72,64.22
             183.72,64.22 174.20,72.68 174.20,72.68
             172.09,74.53 171.82,77.70 173.67,80.08
             184.25,93.30 190.59,110.21 190.59,128.45
             190.59,146.69 184.25,163.61 173.67,176.82
             171.82,178.94 172.09,182.37 174.20,184.22
             174.20,184.22 183.72,192.68 183.72,192.68
             186.10,194.80 189.53,194.53 191.65,191.89
             205.66,174.44 214.12,152.24 214.12,128.19
             214.12,104.14 205.92,82.46 191.65,65.02
             191.65,65.02 191.65,65.01 191.65,65.01 Z
           M 220.72,38.05
           C 218.87,35.68 215.17,35.68 213.06,37.53
             213.06,37.53 203.54,46.25 203.54,46.25
             201.43,48.10 201.17,51.53 203.02,53.65
             219.93,74.00 229.98,100.17 229.98,128.45
             229.98,156.73 219.93,182.90 203.02,203.25
             201.16,205.63 201.43,208.81 203.54,210.66
             203.54,210.66 213.06,219.38 213.06,219.38
             215.17,221.49 218.87,221.23 220.72,218.85
             241.34,194.27 253.76,162.81 253.76,128.19
             253.76,93.56 241.34,62.64 220.72,38.05
             220.72,38.05 220.72,38.05 220.72,38.05 Z" />
  </symbol>
</svg>