<?xml version="1.0" encoding="UTF-8" standalone="no"?>
<!DOCTYPE svg PUBLIC "-//W3C//DTD SVG 20010904//EN"
        "http://www.w3.org/TR/2001/REC-SVG-20010904/DTD/svg10.dtd">

<svg xmlns="http://www.w3.org/2000/svg" viewBox="0 0 256 256">
  <symbol id="icon" viewBox="0 0 256 256">
    <path
            d="M 253.45,125.53
           C 253.16,124.82 252.74,124.18 252.16,123.60
             252.16,123.60 214.79,86.24 214.79,86.24
             212.54,83.98 208.61,83.98 206.35,86.24
             204.04,88.57 204.04,92.35 206.36,94.67
             206.36,94.67 233.54,121.85 233.54,121.85
             233.54,121.85 134.46,121.85 134.46,121.85
             134.46,121.85 134.47,22.78 134.47,22.78
             134.47,22.78 161.64,49.94 161.64,49.94
             163.89,52.21 167.86,52.19 170.07,49.96
             171.21,48.83 171.83,47.33 171.83,45.73
             171.83,44.13 171.20,42.63 170.08,41.52
             170.08,41.52 132.74,4.17 132.74,4.17
             130.68,2.08 126.97,1.98 124.91,3.63
             124.78,3.73 124.65,3.82 124.54,3.92
             124.45,3.99 124.37,4.07 124.28,4.15
             124.28,4.15 86.93,41.51 86.93,41.51
             85.80,42.64 85.18,44.14 85.18,45.73
             85.18,47.33 85.80,48.83 86.89,49.92
             89.12,52.19 93.12,52.21 95.36,49.96
             95.36,49.96 122.54,22.77 122.54,22.77
             122.54,22.77 122.54,121.84 122.54,121.84
             122.54,121.84 23.47,121.84 23.47,121.84
             23.47,121.84 50.64,94.67 50.64,94.67
             51.77,93.55 52.39,92.05 52.39,90.45
             52.39,88.86 51.77,87.36 50.64,86.23
             48.39,83.98 44.46,83.98 42.21,86.23
             42.21,86.23 4.85,123.59 4.85,123.59
             4.29,124.15 3.85,124.81 3.60,125.44
             3.36,125.98 3.26,126.47 3.20,126.87
             3.14,127.18 3.10,127.53 3.10,127.82
             3.10,128.60 3.26,129.37 3.59,130.18
             3.67,130.37 3.78,130.58 3.90,130.77
             4.10,131.13 4.40,131.58 4.84,132.03
             4.84,132.03 42.21,169.39 42.21,169.39
             43.34,170.52 44.84,171.14 46.43,171.14
             48.02,171.14 49.52,170.52 50.65,169.39
             52.97,167.07 52.97,163.29 50.65,160.96
             50.65,160.96 23.46,133.78 23.46,133.78
             23.46,133.78 122.54,133.78 122.54,133.78
             122.54,133.78 122.54,232.86 122.54,232.86
             122.54,232.86 95.37,205.69 95.37,205.69
             93.11,203.42 89.15,203.43 86.92,205.68
             85.80,206.81 85.17,208.31 85.18,209.90
             85.18,211.50 85.80,213.00 86.92,214.11
             86.92,214.11 124.25,251.44 124.25,251.44
             124.80,252.00 125.45,252.44 126.19,252.75
             126.93,253.06 127.71,253.22 128.50,253.22
             129.30,253.22 130.08,253.06 130.82,252.75
             131.53,252.45 132.17,252.02 132.72,251.47
             132.72,251.47 170.07,214.11 170.07,214.11
             171.20,212.99 171.83,211.49 171.83,209.90
             171.83,208.30 171.21,206.80 170.10,205.69
             167.84,203.41 163.84,203.44 161.65,205.67
             161.65,205.67 134.46,232.86 134.46,232.86
             134.46,232.86 134.46,133.78 134.46,133.78
             134.46,133.78 233.55,133.78 233.55,133.78
             233.55,133.78 206.36,160.97 206.36,160.97
             204.05,163.28 204.05,167.07 206.37,169.39
             207.50,170.52 209.00,171.14 210.59,171.14
             212.18,171.14 213.68,170.52 214.80,169.39
             214.80,169.39 252.17,132.03 252.17,132.03
             252.73,131.47 253.18,130.79 253.47,130.07
             253.77,129.34 253.92,128.58 253.92,127.81
             253.92,127.02 253.75,126.21 253.46,125.52
             253.46,125.52 253.45,125.53 253.45,125.53 Z" />
  </symbol>
</svg>