<?xml version="1.0" encoding="UTF-8" standalone="no"?>
<!DOCTYPE svg PUBLIC "-//W3C//DTD SVG 20010904//EN"
        "http://www.w3.org/TR/2001/REC-SVG-20010904/DTD/svg10.dtd">

<svg xmlns="http://www.w3.org/2000/svg" viewBox="0 0 256 256">
  <symbol id="icon" viewBox="0 0 256 256">
    <path
            d="M 242.29,186.59
           C 242.29,186.59 14.32,186.59 14.32,186.59
             7.10,186.59 1.21,192.48 1.21,199.70
             1.21,206.93 7.10,212.82 14.32,212.82
             14.32,212.82 242.03,212.82 242.03,212.82
             249.25,212.82 255.14,206.93 255.14,199.70
             255.14,192.48 249.52,186.59 242.29,186.59
             242.29,186.59 242.29,186.59 242.29,186.59 Z
           M 48.04,147.53
           C 48.04,147.53 52.59,157.96 52.59,157.96
             54.73,163.05 59.54,165.99 64.90,165.99
             66.50,165.99 68.38,165.72 69.98,164.92
             76.67,161.98 79.88,154.22 76.94,147.53
             76.94,147.53 72.39,137.09 72.39,137.09
             69.18,129.87 70.51,121.31 75.33,115.15
             87.91,99.36 89.51,77.16 78.81,60.03
             78.81,60.03 73.46,51.20 73.46,51.20
             69.71,45.05 61.42,43.17 55.27,46.92
             49.11,50.67 47.24,58.96 50.98,65.11
             50.98,65.11 56.34,73.94 56.34,73.94
             61.15,81.70 60.35,91.60 54.73,98.56
             43.76,112.48 41.08,131.21 48.04,147.53
             48.04,147.53 48.04,147.53 48.04,147.53 Z
           M 111.19,147.53
           C 111.19,147.53 115.73,157.96 115.73,157.96
             117.87,163.05 122.69,165.99 128.04,165.99
             129.65,165.99 131.52,165.72 133.13,164.92
             139.82,161.98 143.03,154.22 140.08,147.53
             140.08,147.53 135.53,137.09 135.53,137.09
             132.32,129.87 133.66,121.31 138.48,115.15
             151.05,99.36 152.66,77.16 141.96,60.03
             141.96,60.03 136.61,51.20 136.61,51.20
             132.86,45.05 124.57,43.17 118.41,46.92
             112.26,50.67 110.38,58.96 114.13,65.11
             114.13,65.11 119.48,73.94 119.48,73.94
             124.30,81.70 123.49,91.60 117.88,98.56
             106.90,112.48 104.23,131.21 111.19,147.53
             111.19,147.53 111.19,147.53 111.19,147.53 Z
           M 174.60,147.53
           C 174.60,147.53 179.15,157.96 179.15,157.96
             181.29,163.05 186.10,165.99 191.46,165.99
             193.06,165.99 194.94,165.72 196.54,164.92
             203.23,161.98 206.44,154.22 203.50,147.53
             203.50,147.53 198.68,137.09 198.68,137.09
             195.47,129.87 196.81,121.31 201.63,115.15
             214.20,99.36 215.81,77.16 205.10,60.03
             205.10,60.03 199.75,51.20 199.75,51.20
             196.01,45.05 187.71,43.17 181.56,46.92
             175.41,50.67 173.53,58.96 177.28,65.11
             177.28,65.11 182.63,73.94 182.63,73.94
             187.44,81.70 186.64,91.60 181.02,98.56
             170.05,112.48 167.64,131.21 174.60,147.53
             174.60,147.53 174.60,147.53 174.60,147.53 Z" />
  </symbol>
</svg>