<?xml version="1.0" encoding="UTF-8" standalone="no"?>
<!DOCTYPE svg PUBLIC "-//W3C//DTD SVG 20010904//EN"
        "http://www.w3.org/TR/2001/REC-SVG-20010904/DTD/svg10.dtd">

<svg xmlns="http://www.w3.org/2000/svg" viewBox="0 0 256 256">
  <symbol id="icon" viewBox="0 0 256 256">
    <path
            d="M 64.72,221.96
           C 66.62,223.87 69.20,224.93 71.90,224.93
             74.59,224.93 77.17,223.87 79.07,221.96
             79.07,221.96 251.65,49.38 251.65,49.38
             251.65,49.38 251.66,49.38 251.66,49.38
             253.61,47.49 254.73,44.89 254.75,42.17
             254.78,39.44 253.71,36.83 251.78,34.90
             249.85,32.97 247.24,31.90 244.51,31.93
             241.79,31.95 239.19,33.07 237.30,35.02
             237.30,35.02 71.90,200.43 71.90,200.43
             71.90,200.43 18.16,146.70 18.16,146.70
             15.58,144.21 11.88,143.26 8.42,144.21
             4.97,145.16 2.27,147.86 1.32,151.32
             0.37,154.77 1.32,158.47 3.81,161.05
             3.81,161.05 64.72,221.96 64.72,221.96 Z" />
  </symbol>
</svg>