<?xml version="1.0" encoding="UTF-8" standalone="no"?>
<!DOCTYPE svg PUBLIC "-//W3C//DTD SVG 20010904//EN"
        "http://www.w3.org/TR/2001/REC-SVG-20010904/DTD/svg10.dtd">

<svg xmlns="http://www.w3.org/2000/svg" viewBox="0 0 256 256">
  <symbol id="icon" viewBox="0 0 256 256">
    <path
            d="M 82.79,22.27
           C 57.90,22.27 37.63,42.68 37.63,67.57
             37.63,89.40 53.22,107.65 73.84,111.82
             73.84,111.82 73.84,180.01 73.84,180.01
             73.84,180.01 29.74,180.01 29.74,180.01
             14.85,180.01 1.38,191.56 1.38,207.14
             1.38,207.14 1.38,234.27 1.38,234.27
             1.38,234.27 254.82,234.27 254.82,234.27
             254.82,234.27 254.82,207.14 254.82,207.14
             254.82,192.94 243.79,180.01 228.90,180.01
             228.90,180.01 209.66,180.01 209.66,180.01
             209.66,180.01 209.66,161.83 209.66,161.83
             209.66,151.96 201.35,143.76 191.48,143.76
             191.48,143.76 155.26,143.76 155.26,143.76
             145.39,143.76 137.19,151.96 137.19,161.83
             137.19,161.83 137.19,180.01 137.19,180.01
             137.19,180.01 91.88,180.01 91.88,180.01
             91.88,180.01 91.88,111.82 91.88,111.82
             112.47,107.59 128.10,89.36 128.10,67.57
             128.10,42.68 107.69,22.27 82.79,22.27
             82.79,22.27 82.79,22.27 82.79,22.27 Z
           M 82.79,40.30
           C 97.90,40.30 110.06,52.46 110.06,67.57
             110.06,82.68 97.90,94.70 82.79,94.70
             67.68,94.70 55.67,82.68 55.67,67.57
             55.67,52.46 67.68,40.30 82.79,40.30 Z
           M 155.26,161.83
           C 155.26,161.83 191.48,161.83 191.48,161.83
             191.48,161.83 191.48,180.01 191.48,180.01
             191.48,180.01 155.26,180.01 155.26,180.01
             155.26,180.01 155.26,161.83 155.26,161.83 Z
           M 29.74,216.22
           C 29.74,216.22 228.90,216.22 228.90,216.22
             234.07,216.22 236.78,219.45 236.78,225.31
             236.78,225.31 236.78,234.40 236.78,234.40
             236.78,234.40 19.45,234.40 19.45,234.40
             19.45,234.40 19.45,225.31 19.45,225.31
             19.45,220.83 24.57,216.22 29.74,216.22
             29.74,216.22 29.74,216.22 29.74,216.22 Z" />
  </symbol>
</svg>