<?xml version="1.0" encoding="UTF-8" standalone="no"?>
<!DOCTYPE svg PUBLIC "-//W3C//DTD SVG 20010904//EN"
        "http://www.w3.org/TR/2001/REC-SVG-20010904/DTD/svg10.dtd">

<svg xmlns="http://www.w3.org/2000/svg" viewBox="0 0 256 256">
  <symbol id="icon" viewBox="0 0 256 256">
    <path
            d="M 123.19,159.56
           C 123.19,159.56 123.19,38.27 123.19,38.27
             123.19,21.21 111.73,6.01 95.20,2.55
             72.27,-2.25 52.28,15.34 52.28,37.20
             52.28,37.20 52.28,159.56 52.28,159.56
             52.28,160.63 51.74,161.69 50.94,162.23
             35.48,176.89 29.35,199.82 38.15,221.67
             44.28,236.87 57.61,248.87 73.60,252.86
             109.32,261.93 141.31,235.27 141.31,201.15
             141.31,186.22 135.18,172.09 124.52,162.23
             123.72,161.70 123.19,160.63 123.19,159.56
             123.19,159.56 123.19,159.56 123.19,159.56 Z
           M 76.00,240.34
           C 65.61,237.40 56.54,229.94 51.75,220.34
             41.88,200.88 48.55,179.82 63.74,168.89
             64.81,168.09 65.34,167.03 65.34,165.96
             65.34,165.96 65.34,38.54 65.34,38.54
             65.34,26.81 73.87,15.88 85.60,14.81
             98.93,13.48 110.39,24.14 110.39,37.20
             110.39,37.20 110.39,165.69 110.39,165.69
             110.39,167.03 110.93,168.09 111.99,168.63
             122.12,176.36 128.25,188.35 128.25,201.42
             128.25,227.54 103.46,248.07 76.00,240.34
             76.00,240.34 76.00,240.34 76.00,240.34 Z
           M 97.33,175.56
           C 97.33,175.56 97.33,109.44 97.33,109.44
             97.33,104.11 93.06,99.85 87.73,99.85
             82.40,99.85 78.14,104.11 78.14,109.44
             78.14,109.44 78.14,175.29 78.14,175.29
             67.47,179.29 60.01,189.42 60.01,201.15
             60.01,216.34 72.27,228.87 87.73,228.87
             102.93,228.87 115.46,216.61 115.46,201.15
             115.46,189.42 107.73,179.29 97.33,175.56
             97.33,175.56 97.33,175.56 97.33,175.56 Z
           M 219.69,138.77
           C 215.96,135.04 210.09,135.04 206.36,138.77
             206.36,138.77 194.36,150.76 194.36,150.76
             194.36,150.76 194.36,83.59 194.36,83.59
             194.36,78.52 190.10,74.26 185.03,74.26
             179.97,74.26 175.70,78.52 175.70,83.59
             175.70,83.59 175.70,150.50 175.70,150.50
             175.70,150.50 163.71,138.50 163.71,138.50
             159.97,134.77 154.11,134.77 150.38,138.50
             146.65,142.23 146.65,148.10 150.38,151.83
             150.38,151.83 178.37,179.82 178.37,179.82
             180.24,181.69 182.63,182.49 185.03,182.49
             187.43,182.49 189.83,181.42 191.70,179.82
             191.70,179.82 219.69,151.83 219.69,151.83
             223.42,148.36 223.42,142.23 219.69,138.77
             219.69,138.77 219.69,138.77 219.69,138.77 Z" />
  </symbol>
</svg>