<?xml version="1.0" encoding="UTF-8" standalone="no"?>
<!DOCTYPE svg PUBLIC "-//W3C//DTD SVG 20010904//EN"
        "http://www.w3.org/TR/2001/REC-SVG-20010904/DTD/svg10.dtd">

<svg xmlns="http://www.w3.org/2000/svg" viewBox="0 0 256 256">
  <symbol id="icon" viewBox="0 0 256 256">
    <path
            d="M 233.89,36.12
           C 233.89,36.12 80.94,36.12 80.94,36.12
             74.85,36.12 69.01,38.84 65.10,43.48
             65.10,43.48 7.42,112.43 7.42,112.43
             1.13,119.92 0.99,130.86 7.09,138.55
             7.09,138.55 65.17,211.61 65.17,211.61
             69.08,216.52 75.05,219.43 81.34,219.43
             81.34,219.43 233.89,219.43 233.89,219.43
             245.29,219.43 254.50,210.22 254.50,198.81
             254.50,198.81 254.50,56.75 254.50,56.75
             254.50,45.35 245.29,36.13 233.89,36.13
             233.89,36.13 233.89,36.12 233.89,36.12 Z
           M 201.27,163.68
           C 203.99,166.26 203.99,170.57 201.40,173.22
             200.08,174.55 198.29,175.28 196.50,175.28
             194.71,175.28 193.12,174.62 191.73,173.29
             191.73,173.29 155.07,137.23 155.07,137.23
             155.07,137.23 118.34,173.29 118.34,173.29
             117.01,174.55 115.29,175.28 113.57,175.28
             111.84,175.28 110.05,174.62 108.66,173.22
             106.07,170.57 106.07,166.26 108.79,163.68
             108.79,163.68 145.32,127.74 145.32,127.74
             145.32,127.74 108.79,91.81 108.79,91.81
             106.07,89.23 106.07,84.92 108.66,82.27
             111.31,79.55 115.56,79.55 118.27,82.20
             118.27,82.20 155.00,118.26 155.00,118.26
             155.00,118.26 191.66,82.20 191.66,82.20
             194.38,79.55 198.62,79.55 201.28,82.27
             203.86,84.92 203.86,89.23 201.14,91.81
             201.14,91.81 164.61,127.74 164.61,127.74
             164.61,127.74 201.14,163.68 201.14,163.68
             201.14,163.68 201.27,163.68 201.27,163.68 Z" />
  </symbol>
</svg>