<?xml version="1.0" encoding="UTF-8" standalone="no"?>
<!DOCTYPE svg PUBLIC "-//W3C//DTD SVG 20010904//EN"
        "http://www.w3.org/TR/2001/REC-SVG-20010904/DTD/svg10.dtd">

<svg xmlns="http://www.w3.org/2000/svg" viewBox="0 0 256 256">
  <symbol id="icon" viewBox="0 0 256 256">
    <path
            d="M 250.91,80.51
           C 250.91,80.51 166.24,180.22 166.24,180.22
             156.70,191.46 142.70,197.94 127.95,197.94
             113.21,197.94 99.21,191.46 89.66,180.22
             89.66,180.22 4.99,80.51 4.99,80.51
             2.82,77.97 1.75,74.68 2.01,71.35
             2.28,68.01 3.86,64.93 6.40,62.76
             8.95,60.60 12.25,59.54 15.58,59.82
             18.91,60.10 21.99,61.70 24.14,64.26
             24.14,64.26 108.81,163.97 108.81,163.97
             113.72,169.34 120.67,172.41 127.95,172.41
             135.23,172.41 142.18,169.34 147.09,163.97
             147.09,163.97 231.76,64.26 231.76,64.26
             233.91,61.70 236.99,60.10 240.32,59.82
             243.65,59.54 246.96,60.60 249.50,62.76
             252.05,64.93 253.63,68.01 253.89,71.35
             254.16,74.68 253.09,77.97 250.91,80.51
             250.91,80.51 250.91,80.51 250.91,80.51 Z" />
  </symbol>
</svg>