<?xml version="1.0" encoding="UTF-8" standalone="no"?>
<!DOCTYPE svg PUBLIC "-//W3C//DTD SVG 20010904//EN"
        "http://www.w3.org/TR/2001/REC-SVG-20010904/DTD/svg10.dtd">

<svg xmlns="http://www.w3.org/2000/svg" viewBox="0 0 256 256">
  <symbol id="icon" viewBox="0 0 256 256">
    <path
            d="M 217.03,66.23
           C 217.03,66.23 213.73,66.23 213.73,66.23
             213.73,66.23 213.73,22.02 213.73,22.02
             213.73,11.03 204.81,2.10 193.82,2.10
             193.82,2.10 181.89,2.10 181.89,2.10
             179.39,2.10 177.38,4.11 177.38,6.61
             177.38,6.61 177.38,21.10 177.38,21.10
             174.74,19.58 171.70,18.72 168.46,18.72
             163.12,18.72 158.30,21.07 155.03,24.80
             151.73,21.07 146.94,18.72 141.60,18.72
             136.27,18.72 131.44,21.07 128.17,24.80
             124.87,21.07 120.08,18.72 114.75,18.72
             109.41,18.72 104.59,21.07 101.32,24.80
             98.02,21.07 93.23,18.72 87.89,18.72
             84.65,18.72 81.58,19.58 78.97,21.10
             78.97,21.10 78.96,6.61 78.96,6.61
             78.96,4.11 76.95,2.10 74.46,2.10
             74.46,2.10 62.52,2.10 62.52,2.10
             51.53,2.10 42.61,11.02 42.61,22.01
             42.61,22.01 42.61,66.23 42.61,66.23
             42.61,66.23 39.31,66.23 39.31,66.23
             29.32,66.23 21.20,74.35 21.20,84.34
             21.20,84.34 21.20,105.86 21.20,105.86
             21.20,115.84 29.32,123.96 39.31,123.96
             39.31,123.96 42.61,123.96 42.61,123.96
             42.61,123.96 42.61,168.18 42.61,168.18
             42.61,179.17 51.53,188.09 62.52,188.09
             62.52,188.09 74.46,188.09 74.46,188.09
             76.95,188.09 78.96,186.08 78.96,183.58
             78.96,183.58 78.96,169.09 78.96,169.09
             81.60,170.61 84.65,171.48 87.89,171.48
             93.22,171.48 98.04,169.12 101.31,165.39
             104.61,169.12 109.41,171.48 114.74,171.48
             120.08,171.48 124.90,169.12 128.17,165.39
             131.47,169.12 136.26,171.48 141.60,171.48
             146.93,171.48 151.76,169.12 155.03,165.39
             158.33,169.12 163.12,171.48 168.45,171.48
             171.70,171.48 174.77,170.61 177.38,169.09
             177.38,169.09 177.38,183.58 177.38,183.58
             177.38,186.08 179.39,188.09 181.88,188.09
             181.88,188.09 193.82,188.09 193.82,188.09
             204.81,188.09 213.73,179.17 213.73,168.18
             213.73,168.18 213.73,123.96 213.73,123.96
             213.73,123.96 217.03,123.96 217.03,123.96
             227.02,123.96 235.14,115.84 235.14,105.86
             235.14,105.86 235.14,84.34 235.14,84.34
             235.14,74.35 227.02,66.23 217.03,66.23
             217.03,66.23 217.03,66.23 217.03,66.23 Z
           M 42.55,114.92
           C 42.55,114.92 39.25,114.92 39.25,114.92
             34.25,114.92 30.18,110.85 30.18,105.86
             30.18,105.86 30.18,84.34 30.18,84.34
             30.18,79.34 34.25,75.27 39.25,75.27
             39.25,75.27 42.55,75.27 42.55,75.27
             42.55,75.27 42.55,114.92 42.55,114.92 Z
           M 69.99,36.26
           C 69.99,36.26 69.99,178.63 69.99,178.63
             69.99,178.63 62.56,178.63 62.56,178.63
             56.56,178.63 51.68,173.75 51.68,167.73
             51.68,167.73 51.68,21.59 51.68,21.59
             51.68,15.59 56.56,10.72 62.56,10.72
             62.56,10.72 69.99,10.72 69.99,10.72
             69.99,10.72 69.99,36.25 69.99,36.25
             69.99,36.25 69.99,36.26 69.99,36.26 Z
           M 96.56,153.21
           C 96.56,158.15 92.55,162.13 87.64,162.13
             82.71,162.13 78.72,158.12 78.72,153.21
             78.72,153.21 78.71,36.34 78.71,36.34
             78.71,31.41 82.73,27.42 87.64,27.42
             92.54,27.42 96.56,31.44 96.56,36.34
             96.56,36.34 96.56,153.21 96.56,153.21
             96.56,153.21 96.56,153.21 96.56,153.21 Z
           M 123.69,153.15
           C 123.69,158.08 119.67,162.07 114.77,162.07
             109.86,162.07 105.85,158.05 105.85,153.15
             105.85,153.15 105.84,36.28 105.84,36.28
             105.84,31.35 109.86,27.36 114.76,27.36
             119.67,27.36 123.69,31.38 123.69,36.28
             123.69,36.28 123.69,153.15 123.69,153.15
             123.69,153.15 123.69,153.15 123.69,153.15 Z
           M 150.57,153.27
           C 150.57,158.21 146.56,162.19 141.65,162.19
             136.75,162.19 132.73,158.18 132.73,153.27
             132.73,153.27 132.73,36.40 132.73,36.40
             132.73,31.47 136.74,27.48 141.65,27.48
             146.55,27.48 150.57,31.50 150.57,36.40
             150.57,36.40 150.57,153.27 150.57,153.27
             150.57,153.27 150.57,153.27 150.57,153.27 Z
           M 177.15,153.27
           C 177.15,158.21 173.14,162.19 168.23,162.19
             163.33,162.19 159.31,158.18 159.31,153.27
             159.31,153.27 159.31,36.40 159.31,36.40
             159.31,31.47 163.32,27.48 168.23,27.48
             173.13,27.48 177.15,31.50 177.15,36.40
             177.15,36.40 177.15,153.27 177.15,153.27
             177.15,153.27 177.15,153.27 177.15,153.27 Z
           M 204.47,70.64
           C 204.47,70.64 204.47,168.03 204.47,168.03
             204.47,174.02 199.59,178.93 193.59,178.93
             193.59,178.93 186.16,178.93 186.16,178.93
             186.16,178.93 186.16,10.99 186.16,10.99
             186.16,10.99 193.59,10.99 193.59,10.99
             199.59,10.99 204.46,15.87 204.46,21.86
             204.46,21.86 204.47,70.61 204.47,70.61
             204.47,70.61 204.47,70.64 204.47,70.64 Z
           M 225.96,105.78
           C 225.96,110.77 221.88,114.85 216.89,114.85
             216.89,114.85 213.59,114.85 213.59,114.85
             213.59,114.85 213.59,75.19 213.59,75.19
             213.59,75.19 216.89,75.19 216.89,75.19
             221.88,75.19 225.96,79.27 225.96,84.26
             225.96,84.26 225.96,105.78 225.96,105.78 Z
           M 217.18,218.70
           C 217.18,218.70 192.82,218.70 192.82,218.70
             174.45,218.70 159.51,203.76 159.51,185.39
             159.51,185.39 159.51,181.20 159.51,181.20
             159.51,178.71 157.50,176.70 155.00,176.70
             152.50,176.70 150.50,178.71 150.50,181.20
             150.50,181.20 150.50,185.39 150.50,185.39
             150.50,208.72 169.49,227.72 192.82,227.72
             192.82,227.72 217.18,227.72 217.18,227.72
             222.11,227.72 226.10,231.73 226.10,236.64
             226.10,241.54 222.08,245.56 217.18,245.56
             217.18,245.56 189.20,245.56 189.20,245.56
             158.01,245.56 132.65,220.20 132.65,189.00
             132.65,189.00 132.65,181.17 132.65,181.17
             132.65,178.67 130.64,176.67 128.14,176.67
             125.64,176.67 123.64,178.67 123.64,181.17
             123.64,181.17 123.64,189.00 123.64,189.00
             123.64,225.16 153.04,254.60 189.23,254.60
             189.23,254.60 217.21,254.60 217.21,254.60
             227.10,254.60 235.17,246.54 235.17,236.64
             235.17,226.74 227.11,218.68 217.21,218.68
             217.21,218.68 217.18,218.70 217.18,218.70 Z
           M 241.50,62.84" />
  </symbol>
</svg>