<?xml version="1.0" encoding="UTF-8" standalone="no"?>
<!DOCTYPE svg PUBLIC "-//W3C//DTD SVG 20010904//EN"
        "http://www.w3.org/TR/2001/REC-SVG-20010904/DTD/svg10.dtd">

<svg xmlns="http://www.w3.org/2000/svg" viewBox="0 0 256 256">
  <symbol id="icon" viewBox="0 0 256 256">
    <path
            d="M 84.87,20.17
           C 79.57,20.17 75.26,24.47 75.26,29.77
             75.26,29.77 75.26,155.55 75.26,155.55
             75.26,160.85 79.56,165.16 84.87,165.16
             90.18,165.16 94.48,160.86 94.48,155.55
             94.48,155.55 94.48,29.80 94.48,29.80
             94.48,24.49 90.18,20.19 84.87,20.19
             84.87,20.19 84.87,20.17 84.87,20.17 Z
           M 142.74,165.16
           C 148.05,165.16 152.35,160.86 152.35,155.55
             152.35,155.55 152.35,136.71 152.35,136.71
             152.35,136.71 152.35,29.80 152.35,29.80
             152.35,24.49 148.05,20.19 142.74,20.19
             137.44,20.19 133.13,24.49 133.13,29.80
             133.13,29.80 133.14,155.55 133.14,155.55
             133.14,160.85 137.44,165.16 142.74,165.16
             142.74,165.16 142.74,165.16 142.74,165.16 Z
           M 45.84,14.03
           C 45.84,14.03 45.84,171.32 45.84,171.32
             45.84,177.78 51.09,183.05 57.57,183.05
             57.57,183.05 65.57,183.05 65.57,183.05
             65.57,183.05 65.57,2.30 65.57,2.30
             65.57,2.30 57.57,2.30 57.57,2.30
             51.12,2.30 45.84,7.55 45.84,14.03
             45.84,14.03 45.84,14.03 45.84,14.03 Z
           M 22.82,81.11
           C 22.82,81.11 22.82,104.25 22.82,104.25
             22.82,109.64 27.20,114.00 32.56,114.00
             32.56,114.00 36.12,114.00 36.12,114.00
             36.12,114.00 36.12,71.33 36.12,71.33
             36.12,71.33 32.56,71.33 32.56,71.33
             27.17,71.33 22.82,75.71 22.82,81.08
             22.82,81.08 22.82,81.11 22.82,81.11 Z
           M 113.78,20.17
           C 108.47,20.17 104.17,24.47 104.17,29.77
             104.17,29.77 104.17,155.55 104.17,155.55
             104.17,160.85 108.47,165.16 113.78,165.16
             119.09,165.16 123.39,160.86 123.39,155.55
             123.39,155.55 123.39,29.80 123.39,29.80
             123.39,24.49 119.09,20.19 113.78,20.19
             113.78,20.19 113.78,20.17 113.78,20.17 Z
           M 224.10,235.42
           C 224.10,235.42 197.89,235.42 197.89,235.42
             172.77,235.42 152.35,215.00 152.35,189.88
             152.35,189.88 152.35,172.30 152.35,172.30
             149.51,173.93 146.24,174.88 142.74,174.88
             139.24,174.88 135.97,173.93 133.13,172.30
             133.13,172.30 133.13,193.78 133.13,193.78
             133.13,227.36 160.43,254.66 194.02,254.66
             194.02,254.66 224.13,254.66 224.13,254.66
             229.43,254.66 233.74,250.36 233.74,245.05
             233.74,239.75 229.43,235.44 224.13,235.44
             224.13,235.44 224.10,235.42 224.10,235.42 Z
           M 210.68,171.32
           C 210.68,171.32 210.68,14.03 210.68,14.03
             210.68,7.57 205.44,2.30 198.96,2.30
             198.96,2.30 190.98,2.30 190.98,2.30
             190.98,2.30 190.98,183.05 190.98,183.05
             190.98,183.05 198.96,183.05 198.96,183.05
             205.41,183.05 210.68,177.81 210.68,171.33
             210.68,171.33 210.68,171.32 210.68,171.32 Z
           M 223.96,71.33
           C 223.96,71.33 220.40,71.33 220.40,71.33
             220.40,71.33 220.40,114.00 220.40,114.00
             220.40,114.00 223.96,114.00 223.96,114.00
             229.35,114.00 233.71,109.61 233.71,104.25
             233.71,104.25 233.71,81.11 233.71,81.11
             233.71,75.71 229.32,71.36 223.96,71.36
             223.96,71.36 223.96,71.33 223.96,71.33 Z
           M 171.65,165.16
           C 176.96,165.16 181.26,160.86 181.26,155.55
             181.26,155.55 181.26,29.80 181.26,29.80
             181.26,24.49 176.96,20.19 171.65,20.19
             166.35,20.19 162.04,24.49 162.04,29.80
             162.04,29.80 162.05,155.55 162.05,155.55
             162.05,160.85 166.35,165.16 171.65,165.16
             171.65,165.16 171.65,165.16 171.65,165.16 Z" />
  </symbol>
</svg>