<?xml version="1.0" encoding="UTF-8" standalone="no"?>
<!DOCTYPE svg PUBLIC "-//W3C//DTD SVG 20010904//EN"
        "http://www.w3.org/TR/2001/REC-SVG-20010904/DTD/svg10.dtd">

<svg xmlns="http://www.w3.org/2000/svg" viewBox="0 0 256 256">
  <symbol id="icon" viewBox="0 0 256 256">
    <path
            d="M 139.35,254.05
           C 171.26,251.13 200.86,236.14 222.10,212.14
             243.34,188.14 254.63,156.95 253.65,124.91
             252.68,92.88 239.52,62.42 216.85,39.76
             194.19,17.10 163.74,3.93 131.71,2.96
             99.68,1.98 68.47,13.26 44.48,34.50
             20.48,55.74 5.48,85.33 2.56,117.25
             0.37,141.83 5.44,166.50 17.14,188.23
             28.84,209.95 46.65,227.77 68.37,239.47
             90.09,251.17 114.77,256.24 139.34,254.05
             139.34,254.05 139.35,254.05 139.35,254.05 Z
           M 127.87,49.05
           C 131.00,49.05 134.01,50.30 136.22,52.51
             138.44,54.73 139.69,57.73 139.69,60.87
             139.69,64.00 138.44,67.01 136.22,69.22
             134.01,71.44 131.00,72.68 127.87,72.68
             124.73,72.68 121.73,71.44 119.51,69.22
             117.30,67.01 116.05,64.00 116.05,60.87
             116.05,57.73 117.30,54.73 119.51,52.51
             121.73,50.30 124.73,49.05 127.87,49.05
             127.87,49.05 127.87,49.05 127.87,49.05 Z
           M 113.10,117.00
           C 108.87,117.00 104.97,114.75 102.86,111.09
             100.75,107.43 100.75,102.93 102.86,99.27
             104.97,95.62 108.87,93.37 113.10,93.37
             113.10,93.37 136.74,93.37 136.74,93.37
             138.37,93.37 139.69,94.69 139.69,96.31
             139.69,96.31 139.69,182.00 139.69,182.00
             139.69,182.00 142.64,182.00 142.64,182.00
             146.86,182.00 150.76,184.25 152.88,187.91
             154.99,191.56 154.99,196.07 152.88,199.72
             150.76,203.38 146.86,205.63 142.64,205.63
             142.64,205.63 113.10,205.63 113.10,205.63
             108.88,205.63 104.97,203.38 102.86,199.72
             100.75,196.07 100.75,191.56 102.86,187.91
             104.97,184.25 108.88,182.00 113.10,182.00
             113.10,182.00 116.05,182.00 116.05,182.00
             116.05,182.00 116.05,117.00 116.05,117.00
             116.05,117.00 113.10,117.00 113.10,117.00 Z" />
  </symbol>
</svg>