<?xml version="1.0" encoding="UTF-8" standalone="no"?>
<!DOCTYPE svg PUBLIC "-//W3C//DTD SVG 20010904//EN"
        "http://www.w3.org/TR/2001/REC-SVG-20010904/DTD/svg10.dtd">

<svg xmlns="http://www.w3.org/2000/svg" viewBox="0 0 256 256">
  <symbol id="icon" viewBox="0 0 256 256">
    <path
            d="M 127.99,2.44
           C 58.54,2.44 2.09,58.90 2.09,128.35
             2.09,161.74 15.37,193.77 38.97,217.38
             62.58,240.99 94.61,254.25 127.99,254.25
             154.00,254.23 179.32,246.15 200.50,231.19
             200.50,231.19 243.06,253.41 243.06,253.41
             245.93,254.91 249.44,254.37 251.73,252.08
             254.02,249.79 254.55,246.28 253.05,243.41
             253.05,243.41 230.84,200.86 230.84,200.86
             245.79,179.68 253.87,154.35 253.89,128.35
             253.89,94.96 240.62,62.94 217.01,39.33
             193.40,15.72 161.38,2.44 127.99,2.44
             127.99,2.44 127.99,2.44 127.99,2.44 Z
           M 127.99,17.26
           C 157.46,17.26 185.72,28.95 206.55,49.79
             227.38,70.63 239.08,98.88 239.08,128.35
             239.06,152.70 231.04,176.36 216.25,195.71
             214.51,198.00 214.24,201.09 215.57,203.64
             215.57,203.64 229.01,229.37 229.01,229.37
             229.01,229.37 203.28,215.93 203.28,215.93
             200.73,214.60 197.64,214.87 195.35,216.61
             176.00,231.40 152.34,239.42 127.99,239.44
             98.52,239.44 70.28,227.74 49.44,206.91
             28.60,186.07 16.89,157.81 16.89,128.35
             16.89,66.91 66.54,17.26 127.99,17.26
             127.99,17.26 127.99,17.26 127.99,17.26 Z
           M 127.99,34.85
           C 101.42,34.85 77.40,46.00 60.36,63.85
             60.35,63.86 60.34,63.87 60.33,63.88
             60.33,63.88 60.34,63.88 60.34,63.88
             60.33,63.88 60.32,63.89 60.31,63.89
             60.21,64.00 60.12,64.10 60.03,64.21
             44.21,80.97 34.49,103.54 34.49,128.35
             34.49,153.19 44.23,175.80 60.09,192.56
             60.16,192.64 60.23,192.72 60.31,192.80
             60.32,192.81 60.33,192.82 60.33,192.82
             60.34,192.83 60.35,192.84 60.36,192.85
             77.40,210.70 101.42,221.85 127.99,221.85
             154.55,221.85 178.57,210.70 195.61,192.85
             195.62,192.84 195.63,192.83 195.64,192.82
             195.64,192.82 195.64,192.82 195.64,192.82
             195.65,192.82 195.65,192.81 195.67,192.80
             195.93,192.55 196.18,192.28 196.40,191.99
             211.95,175.29 221.49,152.91 221.49,128.35
             221.49,103.86 212.02,81.55 196.56,64.86
             196.30,64.50 196.00,64.17 195.68,63.87
             195.60,63.80 195.52,63.74 195.43,63.68
             178.41,45.93 154.46,34.85 127.98,34.85
             127.98,34.85 127.99,34.85 127.99,34.85 Z
           M 127.98,49.66
           C 129.25,49.66 131.20,50.39 133.94,53.73
             136.69,57.06 139.68,62.68 142.20,69.91
             143.90,74.80 145.39,80.42 146.64,86.60
             140.59,88.08 134.33,88.85 127.98,88.85
             121.64,88.85 115.38,88.08 109.32,86.60
             110.57,80.42 112.08,74.80 113.78,69.91
             116.30,62.68 119.28,57.06 122.02,53.73
             124.77,50.39 126.72,49.66 127.98,49.66
             127.98,49.66 127.98,49.66 127.98,49.66 Z
           M 104.87,53.09
           C 102.98,56.68 101.31,60.67 99.79,65.04
             98.02,70.11 96.48,75.69 95.19,81.69
             88.26,78.51 81.80,74.33 76.01,69.23
             84.27,61.96 94.07,56.39 104.87,53.09
             104.87,53.09 104.87,53.09 104.87,53.09 Z
           M 151.10,53.10
           C 161.90,56.41 171.71,61.96 179.97,69.23
             174.18,74.33 167.70,78.51 160.78,81.69
             159.49,75.69 157.96,70.11 156.19,65.04
             154.67,60.68 152.98,56.69 151.10,53.10
             151.10,53.10 151.10,53.10 151.10,53.10 Z
           M 190.13,80.01
           C 199.08,91.51 204.90,105.58 206.33,120.94
             206.33,120.94 165.26,120.94 165.26,120.94
             165.02,112.49 164.37,104.36 163.35,96.70
             173.10,92.72 182.16,87.09 190.13,80.01
             190.13,80.01 190.13,80.01 190.13,80.01 Z
           M 65.84,80.02
           C 73.80,87.10 82.87,92.72 92.62,96.70
             91.60,104.36 90.95,112.49 90.71,120.94
             90.71,120.94 49.64,120.94 49.64,120.94
             51.07,105.58 56.89,91.52 65.84,80.02
             65.84,80.02 65.84,80.02 65.84,80.02 Z
           M 106.99,101.27
           C 113.82,102.84 120.86,103.66 127.98,103.66
             135.11,103.66 142.15,102.84 148.97,101.27
             149.72,107.51 150.23,114.10 150.45,120.94
             150.45,120.94 105.53,120.94 105.53,120.94
             105.75,114.10 106.25,107.51 106.99,101.27
             106.99,101.27 106.99,101.27 106.99,101.27 Z
           M 49.64,135.76
           C 49.64,135.76 90.71,135.76 90.71,135.76
             90.94,144.21 91.60,152.34 92.61,160.00
             82.87,163.98 73.80,169.60 65.84,176.68
             56.89,165.18 51.06,151.12 49.64,135.76
             49.64,135.76 49.64,135.76 49.64,135.76 Z
           M 105.53,135.76
           C 105.53,135.76 150.45,135.76 150.45,135.76
             150.24,142.60 149.72,149.19 148.97,155.43
             142.15,153.86 135.11,153.04 127.98,153.04
             120.86,153.04 113.82,153.86 106.99,155.43
             106.25,149.19 105.75,142.60 105.53,135.76
             105.53,135.76 105.53,135.76 105.53,135.76 Z
           M 165.26,135.76
           C 165.26,135.76 206.33,135.76 206.33,135.76
             204.90,151.12 199.09,165.19 190.14,176.69
             182.17,169.60 173.10,163.98 163.35,160.00
             164.37,152.34 165.02,144.21 165.26,135.76
             165.26,135.76 165.26,135.76 165.26,135.76 Z
           M 127.98,167.85
           C 134.32,167.85 140.59,168.62 146.64,170.10
             145.39,176.28 143.90,181.90 142.20,186.79
             139.68,194.03 136.69,199.64 133.94,202.98
             131.19,206.31 129.25,207.04 127.98,207.04
             126.71,207.04 124.77,206.31 122.02,202.98
             119.28,199.64 116.30,194.03 113.78,186.79
             112.08,181.90 110.57,176.28 109.32,170.10
             115.38,168.62 121.64,167.85 127.98,167.85
             127.98,167.85 127.98,167.85 127.98,167.85 Z
           M 95.19,175.01
           C 96.48,181.01 98.02,186.59 99.79,191.66
             101.31,196.03 102.98,200.02 104.87,203.61
             94.06,200.31 84.27,194.74 76.01,187.47
             81.80,182.37 88.26,178.19 95.19,175.01
             95.19,175.01 95.19,175.01 95.19,175.01 Z
           M 160.78,175.01
           C 167.70,178.19 174.18,182.37 179.97,187.47
             171.71,194.74 161.90,200.30 151.10,203.60
             152.98,200.01 154.67,196.02 156.19,191.66
             157.96,186.59 159.48,181.01 160.78,175.01
             160.78,175.01 160.78,175.01 160.78,175.01 Z" />
  </symbol>
</svg>