<?xml version="1.0" encoding="UTF-8" standalone="no"?>
<!DOCTYPE svg PUBLIC "-//W3C//DTD SVG 20010904//EN"
        "http://www.w3.org/TR/2001/REC-SVG-20010904/DTD/svg10.dtd">

<svg xmlns="http://www.w3.org/2000/svg" viewBox="0 0 256 256">
  <symbol id="icon" viewBox="0 0 256 256">
    <path
            d="M 8.20,14.54
           C 5.06,14.54 2.20,17.40 2.20,20.54
             2.20,20.54 2.20,236.51 2.20,236.51
             2.20,239.65 5.06,242.51 8.20,242.51
             8.20,242.51 248.16,242.51 248.16,242.51
             251.13,242.51 253.89,240.02 254.16,237.07
             254.17,236.89 254.17,236.70 254.16,236.51
             254.16,236.51 254.16,182.52 254.16,182.52
             254.16,179.38 251.30,176.52 248.16,176.52
             248.16,176.52 68.19,176.52 68.19,176.52
             68.19,176.52 68.19,98.53 68.19,98.53
             68.24,95.36 65.36,92.44 62.19,92.44
             59.02,92.44 56.15,95.36 56.19,98.53
             56.19,98.53 56.19,230.51 56.19,230.51
             56.19,230.51 14.20,230.51 14.20,230.51
             14.20,230.51 14.20,212.51 14.20,212.51
             14.20,212.51 26.20,212.51 26.20,212.51
             29.37,212.56 32.28,209.68 32.28,206.51
             32.28,203.34 29.37,200.47 26.20,200.52
             26.20,200.52 14.20,200.52 14.20,200.52
             14.20,200.52 14.20,173.52 14.20,173.52
             14.20,173.52 26.20,173.52 26.20,173.52
             29.37,173.57 32.28,170.69 32.28,167.52
             32.28,164.35 29.37,161.48 26.20,161.52
             26.20,161.52 14.20,161.52 14.20,161.52
             14.20,161.52 14.20,134.53 14.20,134.53
             14.20,134.53 26.20,134.53 26.20,134.53
             29.37,134.57 32.28,131.70 32.28,128.53
             32.28,125.36 29.37,122.48 26.20,122.53
             26.20,122.53 14.20,122.53 14.20,122.53
             14.20,122.53 14.20,95.53 14.20,95.53
             14.20,95.53 26.20,95.53 26.20,95.53
             29.37,95.58 32.28,92.70 32.28,89.54
             32.28,86.37 29.37,83.49 26.20,83.54
             26.20,83.54 14.20,83.54 14.20,83.54
             14.20,83.54 14.20,56.54 14.20,56.54
             14.20,56.54 26.20,56.54 26.20,56.54
             29.37,56.58 32.28,53.71 32.28,50.54
             32.28,47.37 29.37,44.50 26.20,44.54
             26.20,44.54 14.20,44.54 14.20,44.54
             14.20,44.54 14.20,26.54 14.20,26.54
             14.20,26.54 56.19,26.54 56.19,26.54
             56.19,26.54 56.19,74.54 56.19,74.54
             56.15,77.71 59.02,80.62 62.19,80.62
             65.36,80.62 68.24,77.71 68.19,74.54
             68.19,74.54 68.19,20.55 68.19,20.55
             68.19,17.41 65.33,14.55 62.19,14.55
             62.19,14.55 8.20,14.54 8.20,14.54 Z
           M 68.18,188.34
           C 68.18,188.34 242.15,188.34 242.15,188.34
             242.15,188.34 242.15,230.34 242.15,230.34
             242.15,230.34 224.15,230.34 224.15,230.34
             224.15,230.34 224.15,218.34 224.15,218.34
             224.23,214.94 220.88,211.87 217.50,212.25
             214.55,212.57 212.09,215.37 212.15,218.34
             212.15,218.34 212.15,230.34 212.15,230.34
             212.15,230.34 185.16,230.34 185.16,230.34
             185.16,230.34 185.16,218.34 185.16,218.34
             185.23,214.94 181.88,211.87 178.50,212.25
             175.55,212.57 173.09,215.37 173.16,218.34
             173.16,218.34 173.16,230.34 173.16,230.34
             173.16,230.34 146.16,230.34 146.16,230.34
             146.16,230.34 146.16,218.34 146.16,218.34
             146.23,214.94 142.89,211.87 139.51,212.25
             136.56,212.57 134.10,215.37 134.16,218.34
             134.16,218.34 134.16,230.34 134.16,230.34
             134.16,230.34 107.17,230.34 107.17,230.34
             107.17,230.34 107.17,218.34 107.17,218.34
             107.24,214.94 103.89,211.87 100.51,212.25
             97.56,212.57 95.10,215.37 95.17,218.34
             95.17,218.34 95.17,230.34 95.17,230.34
             95.17,230.34 68.17,230.34 68.17,230.34
             68.17,230.34 68.18,188.34 68.18,188.34 Z
           M -43.18,99.62" />
  </symbol>
</svg>