<?xml version="1.0" encoding="UTF-8" standalone="no"?>
<!DOCTYPE svg PUBLIC "-//W3C//DTD SVG 20010904//EN"
        "http://www.w3.org/TR/2001/REC-SVG-20010904/DTD/svg10.dtd">

<svg xmlns="http://www.w3.org/2000/svg" viewBox="0 0 256 256">
  <symbol id="icon" viewBox="0 0 256 256">
    <path
        d="M 128.00,1.45
           C 86.56,1.45 46.61,33.70 46.61,79.36
             46.61,107.79 57.87,126.22 67.90,140.41
             77.93,154.60 85.80,164.22 85.80,179.31
             85.80,179.31 85.80,215.49 85.80,215.49
             85.80,227.37 95.67,236.59 106.90,236.59
             106.90,236.59 107.18,236.59 107.18,236.59
             108.67,246.74 117.49,254.68 128.00,254.68
             138.52,254.68 147.34,246.74 148.82,236.59
             148.82,236.59 149.11,236.59 149.11,236.59
             160.33,236.59 170.21,227.37 170.21,215.49
             170.21,215.49 170.21,179.31 170.21,179.31
             170.21,164.21 178.08,154.60 188.11,140.41
             198.14,126.22 209.40,107.79 209.40,79.36
             209.40,33.70 169.45,1.45 128.00,1.45
             128.00,1.45 128.00,1.45 128.00,1.45 Z
           M 128.00,19.54
           C 160.09,19.54 191.31,44.34 191.31,79.36
             191.31,103.27 182.98,116.41 173.41,129.95
             165.26,141.49 155.57,153.60 152.88,170.27
             152.88,170.27 103.14,170.27 103.14,170.27
             100.45,153.60 90.75,141.49 82.60,129.95
             73.03,116.41 64.70,103.27 64.70,79.36
             64.70,44.33 95.92,19.54 128.01,19.54
             128.01,19.54 128.00,19.54 128.00,19.54 Z
           M 123.96,25.57
           C 94.00,29.06 70.73,54.68 70.73,85.48
             70.73,91.65 71.65,97.59 73.37,103.19
             74.77,107.73 80.13,110.53 84.67,109.13
             89.21,107.72 92.11,102.36 90.70,97.82
             89.50,93.90 88.82,89.81 88.82,85.48
             88.82,63.74 105.03,46.01 126.03,43.56
             130.69,43.23 134.63,38.80 134.41,34.14
             133.47,27.61 129.23,25.17 123.96,25.57
             123.96,25.57 123.96,25.57 123.96,25.57 Z
           M 103.89,188.35
           C 103.89,188.35 152.13,188.35 152.13,188.35
             152.13,188.35 152.13,194.38 152.13,194.38
             152.13,194.38 103.89,194.38 103.89,194.38
             103.89,194.38 103.89,188.35 103.89,188.35 Z
           M 103.89,218.50
           C 103.89,218.50 152.13,218.50 152.13,218.50
             152.13,218.50 152.13,221.52 152.13,221.52
             152.13,223.49 150.61,224.53 149.11,224.53
             149.11,224.53 106.91,224.53 106.91,224.53
             105.40,224.53 103.89,223.49 103.89,221.52
             103.89,221.52 103.89,218.50 103.89,218.50 Z" />
  </symbol>
</svg>