<?xml version="1.0" encoding="UTF-8" standalone="no"?>
<!DOCTYPE svg PUBLIC "-//W3C//DTD SVG 20010904//EN"
        "http://www.w3.org/TR/2001/REC-SVG-20010904/DTD/svg10.dtd">

<svg xmlns="http://www.w3.org/2000/svg" viewBox="0 0 256 256">
  <symbol id="icon" viewBox="0 0 256 256">
    <path
            d="M 62.30,28.29
           C 50.73,28.27 41.30,37.68 41.28,49.26
             41.28,49.26 41.21,111.84 41.21,111.84
             41.21,111.84 1.46,111.80 1.46,111.80
             1.46,111.80 1.42,144.64 1.42,144.64
             1.42,144.64 41.17,144.69 41.17,144.69
             41.17,144.69 41.10,207.27 41.10,207.27
             41.09,218.85 50.50,228.28 62.07,228.29
             62.07,228.29 95.75,228.33 95.75,228.33
             95.75,228.33 95.98,28.32 95.98,28.32
             95.98,28.32 62.30,28.29 62.30,28.29 Z
           M 76.67,184.09
           C 76.67,186.89 74.39,189.16 71.60,189.15
             71.60,189.15 50.46,189.13 50.46,189.13
             50.46,189.13 50.48,174.86 50.48,174.86
             50.48,174.86 71.62,174.88 71.62,174.88
             74.41,174.88 76.68,177.16 76.68,179.95
             76.68,179.95 76.67,184.09 76.67,184.09 Z
           M 76.82,76.52
           C 76.81,79.31 74.54,81.58 71.74,81.58
             71.74,81.58 50.60,81.56 50.60,81.56
             50.60,81.56 50.62,67.28 50.62,67.28
             50.62,67.28 71.76,67.31 71.76,67.31
             74.55,67.31 76.82,69.59 76.82,72.38
             76.82,72.38 76.82,76.52 76.82,76.52 Z
           M 105.41,34.76
           C 105.41,34.76 189.98,34.86 189.98,34.86
             189.98,34.86 189.94,66.92 189.94,66.92
             189.94,66.92 105.38,66.83 105.38,66.83
             105.38,66.83 105.41,34.76 105.41,34.76 Z
           M 105.28,152.04
           C 105.28,152.04 189.84,152.13 189.84,152.13
             189.84,152.13 189.81,180.58 189.81,180.58
             189.81,180.58 105.25,180.49 105.25,180.49
             105.25,180.49 105.28,152.04 105.28,152.04 Z
           M 105.37,76.27
           C 105.37,76.27 189.93,76.36 189.93,76.36
             189.93,76.36 189.90,104.81 189.90,104.81
             189.90,104.81 105.33,104.71 105.33,104.71
             105.33,104.71 105.37,76.27 105.37,76.27 Z
           M 105.24,189.93
           C 105.24,189.93 189.80,190.02 189.80,190.02
             189.80,190.02 189.77,222.08 189.77,222.08
             189.77,222.08 105.20,221.99 105.20,221.99
             105.20,221.99 105.24,189.93 105.24,189.93 Z
           M 105.32,114.16
           C 105.32,114.16 189.89,114.25 189.89,114.25
             189.89,114.25 189.86,142.69 189.86,142.69
             189.86,142.69 105.29,142.60 105.29,142.60
             105.29,142.60 105.32,114.16 105.32,114.16 Z
           M 236.78,28.52
           C 236.78,28.52 199.43,28.48 199.43,28.48
             199.43,28.48 199.20,228.49 199.20,228.49
             199.20,228.49 232.88,228.52 232.88,228.52
             244.45,228.54 253.88,219.13 253.89,207.55
             253.89,207.55 254.08,45.86 254.08,45.86
             254.09,36.31 246.33,28.53 236.78,28.52
             236.78,28.52 236.78,28.52 236.78,28.52 Z
           M 241.33,189.39
           C 241.33,189.39 220.19,189.36 220.19,189.36
             217.40,189.36 215.13,187.08 215.13,184.29
             215.13,184.29 215.13,180.14 215.13,180.14
             215.14,177.35 217.41,175.08 220.20,175.08
             220.20,175.08 241.34,175.11 241.34,175.11
             241.34,175.11 241.33,189.39 241.33,189.39 Z
           M 241.20,81.89
           C 241.20,81.89 220.06,81.86 220.06,81.86
             217.27,81.86 215.00,79.58 215.00,76.79
             215.00,76.79 215.01,72.65 215.01,72.65
             215.01,69.85 217.29,67.58 220.08,67.59
             220.08,67.59 241.22,67.61 241.22,67.61
             241.22,67.61 241.20,81.89 241.20,81.89 Z" />
  </symbol>
</svg>