<?xml version="1.0" encoding="UTF-8" standalone="no"?>
<!DOCTYPE svg PUBLIC "-//W3C//DTD SVG 20010904//EN"
        "http://www.w3.org/TR/2001/REC-SVG-20010904/DTD/svg10.dtd">

<svg xmlns="http://www.w3.org/2000/svg" viewBox="0 0 256 256">
  <symbol id="icon" viewBox="0 0 256 256">
    <path
            d="M 69.19,163.44
           C 69.19,163.44 85.32,163.44 85.32,163.44
             85.32,163.44 85.32,174.79 85.32,174.79
             85.32,177.01 86.20,179.14 87.77,180.71
             89.34,182.28 91.48,183.16 93.69,183.16
             93.69,183.16 107.83,183.16 107.83,183.16
             107.83,183.16 107.83,232.57 107.83,232.57
             107.59,243.61 115.66,253.09 126.61,254.59
             132.51,255.20 138.39,253.28 142.79,249.31
             147.19,245.34 149.70,239.69 149.70,233.76
             149.70,233.76 149.70,183.16 149.70,183.16
             149.70,183.16 163.84,183.16 163.84,183.16
             168.46,183.16 172.22,179.41 172.22,174.79
             172.22,174.79 172.22,163.44 172.22,163.44
             172.22,163.44 188.35,163.44 188.35,163.44
             192.97,163.44 196.72,159.69 196.72,155.07
             196.72,155.07 196.72,10.94 196.72,10.94
             196.72,6.32 192.97,2.57 188.35,2.57
             188.35,2.57 69.19,2.57 69.19,2.57
             66.97,2.57 64.84,3.45 63.26,5.02
             61.69,6.59 60.81,8.72 60.81,10.94
             60.81,10.94 60.81,155.07 60.81,155.07
             60.81,157.29 61.69,159.42 63.26,160.99
             64.84,162.56 66.97,163.44 69.19,163.44
             69.19,163.44 69.19,163.44 69.19,163.44 Z" />
  </symbol>
</svg>