<?xml version="1.0" encoding="UTF-8" standalone="no"?>
<!DOCTYPE svg PUBLIC "-//W3C//DTD SVG 20010904//EN"
        "http://www.w3.org/TR/2001/REC-SVG-20010904/DTD/svg10.dtd">

<svg xmlns="http://www.w3.org/2000/svg" viewBox="0 0 256 256">
  <symbol id="icon" viewBox="0 0 256 256">
    <path
            d="M 128.24,1.54
           C 94.54,1.54 62.22,14.93 38.39,38.76
             14.56,62.59 1.17,94.92 1.17,128.62
             1.17,162.32 14.56,194.64 38.39,218.47
             62.22,242.30 94.54,255.69 128.24,255.69
             161.94,255.69 194.27,242.30 218.10,218.47
             241.93,194.64 255.32,162.32 255.32,128.62
             255.28,94.93 241.88,62.63 218.06,38.80
             194.23,14.98 161.94,1.58 128.24,1.54
             128.24,1.54 128.24,1.54 128.24,1.54 Z
           M 128.24,237.96
           C 99.24,237.96 71.43,226.44 50.93,205.93
             30.42,185.43 18.90,157.62 18.90,128.62
             18.90,99.62 30.42,71.81 50.93,51.30
             71.43,30.80 99.24,19.28 128.24,19.28
             157.24,19.28 185.05,30.80 205.56,51.30
             226.06,71.81 237.58,99.62 237.58,128.62
             237.55,157.61 226.02,185.40 205.52,205.90
             185.02,226.39 157.23,237.93 128.24,237.96
             128.24,237.96 128.24,237.96 128.24,237.96 Z
           M 100.46,68.33
           C 100.46,68.33 101.65,68.33 101.65,68.33
             106.22,68.33 109.92,72.90 109.92,76.61
             109.92,76.61 109.92,178.26 109.92,178.26
             109.92,182.83 106.22,186.54 101.65,186.54
             101.65,186.54 100.46,186.54 100.46,186.54
             95.89,186.54 92.19,181.97 92.19,178.26
             92.19,178.26 92.19,76.61 92.19,76.61
             92.19,72.04 95.89,68.33 100.46,68.33 Z
           M 157.80,68.33
           C 157.80,68.33 158.98,68.33 158.98,68.33
             163.55,68.33 167.25,72.90 167.25,76.61
             167.25,76.61 167.25,178.26 167.25,178.26
             167.25,182.83 163.55,186.54 158.98,186.54
             158.98,186.54 157.80,186.54 157.80,186.54
             153.23,186.54 149.52,181.97 149.52,178.26
             149.52,178.26 149.52,76.61 149.52,76.61
             149.52,72.04 153.23,68.33 157.80,68.33 Z" />
  </symbol>
</svg>