<?xml version="1.0" encoding="UTF-8" standalone="no"?>
<!DOCTYPE svg PUBLIC "-//W3C//DTD SVG 20010904//EN"
        "http://www.w3.org/TR/2001/REC-SVG-20010904/DTD/svg10.dtd">

<svg xmlns="http://www.w3.org/2000/svg" viewBox="0 0 256 256">
  <symbol id="icon" viewBox="0 0 256 256">
    <path
            d="M 65.80,2.51
           C 65.80,2.51 68.32,2.51 68.32,2.51
             78.05,2.51 85.94,12.24 85.94,20.13
             85.94,20.13 85.94,236.60 85.94,236.60
             85.94,246.33 78.05,254.22 68.32,254.22
             68.32,254.22 65.80,254.22 65.80,254.22
             56.07,254.22 48.18,244.49 48.18,236.60
             48.18,236.60 48.18,20.13 48.18,20.13
             48.18,10.40 56.07,2.51 65.80,2.51
             65.80,2.51 65.80,2.51 65.80,2.51 Z
           M 187.88,2.51
           C 187.88,2.51 190.40,2.51 190.40,2.51
             200.13,2.51 208.02,12.24 208.02,20.13
             208.02,20.13 208.02,236.60 208.02,236.60
             208.02,246.33 200.13,254.22 190.40,254.22
             190.40,254.22 187.88,254.22 187.88,254.22
             178.15,254.22 170.26,244.49 170.26,236.60
             170.26,236.60 170.26,20.13 170.26,20.13
             170.26,10.40 178.15,2.51 187.88,2.51
             187.88,2.51 187.88,2.51 187.88,2.51 Z" />
  </symbol>
</svg>