<?xml version="1.0" encoding="UTF-8" standalone="no"?>
<!DOCTYPE svg PUBLIC "-//W3C//DTD SVG 20010904//EN"
        "http://www.w3.org/TR/2001/REC-SVG-20010904/DTD/svg10.dtd">

<svg xmlns="http://www.w3.org/2000/svg" viewBox="0 0 256 256">
  <symbol id="icon" viewBox="0 0 256 256">
    <path
            d="M 80.11,185.26
           C 79.68,184.69 78.95,184.44 78.27,184.62
             77.59,184.79 77.07,185.36 76.96,186.06
             74.90,198.65 64.50,207.88 53.17,207.88
             53.17,207.88 53.18,207.88 53.18,207.88
             45.81,207.89 38.83,204.54 34.22,198.79
             29.61,193.04 27.87,185.51 29.48,178.32
             31.09,171.13 35.88,165.06 42.50,161.82
             49.12,158.58 56.85,158.53 63.52,161.68
             64.17,161.98 64.93,161.86 65.46,161.37
             65.99,160.89 66.16,160.13 65.91,159.46
             62.78,150.76 60.95,141.64 60.50,132.40
             60.43,131.01 60.40,129.64 60.40,128.25
             60.40,128.25 44.74,128.25 44.74,128.25
             43.09,128.25 41.66,129.38 41.27,130.98
             41.27,130.98 37.06,148.64 37.06,148.64
             34.92,149.63 32.87,150.82 30.95,152.19
             30.95,152.19 13.53,147.00 13.53,147.00
             11.95,146.53 10.25,147.21 9.43,148.63
             9.43,148.63 0.99,163.23 0.99,163.23
             0.17,164.66 0.43,166.47 1.63,167.60
             1.63,167.60 14.81,180.09 14.81,180.09
             14.71,181.25 14.65,182.42 14.65,183.62
             14.65,184.81 14.71,185.99 14.81,187.17
             14.81,187.17 1.63,199.64 1.63,199.64
             0.43,200.77 0.17,202.58 1.00,204.01
             1.00,204.01 9.43,218.60 9.43,218.60
             10.25,220.03 11.95,220.71 13.53,220.24
             13.53,220.24 30.95,215.06 30.95,215.06
             30.95,215.06 30.95,215.07 30.95,215.07
             32.87,216.43 34.92,217.62 37.06,218.61
             37.06,218.61 41.27,236.25 41.27,236.25
             41.27,236.25 41.27,236.25 41.27,236.25
             41.66,237.86 43.09,238.99 44.74,238.99
             44.74,238.99 61.60,238.99 61.60,238.99
             63.24,238.99 64.68,237.86 65.06,236.26
             65.06,236.26 69.29,218.61 69.29,218.61
             69.29,218.61 69.29,218.61 69.29,218.61
             71.43,217.62 73.47,216.43 75.39,215.07
             75.39,215.07 92.80,220.24 92.80,220.24
             92.80,220.24 92.80,220.24 92.80,220.24
             94.38,220.71 96.08,220.03 96.91,218.61
             96.91,218.61 103.66,206.92 103.66,206.92
             103.66,206.92 103.66,206.92 103.66,206.92
             94.65,201.07 86.69,193.75 80.11,185.25
             80.11,185.25 80.11,185.26 80.11,185.26 Z
           M 155.32,143.68
           C 159.40,143.52 163.27,141.82 166.16,138.94
             169.05,136.05 170.74,132.17 170.90,128.09
             171.07,123.34 169.11,118.77 165.56,115.61
             162.01,112.46 157.23,111.05 152.54,111.78
             152.54,111.78 128.54,93.35 128.54,93.35
             126.27,91.61 123.08,91.82 121.06,93.84
             119.05,95.85 118.84,99.05 120.58,101.31
             120.58,101.31 139.01,125.31 139.01,125.31
             138.28,130.01 139.68,134.78 142.84,138.33
             145.99,141.88 150.57,143.84 155.32,143.68
             155.32,143.68 155.32,143.68 155.32,143.68 Z
           M 253.23,132.57
           C 253.23,132.57 233.00,112.34 233.00,112.34
             233.00,112.34 233.00,112.34 233.00,112.34
             231.66,111.01 229.85,110.26 227.95,110.26
             226.06,110.26 224.25,111.01 222.91,112.34
             222.91,112.34 202.69,132.56 202.69,132.56
             202.69,132.56 202.69,132.56 202.69,132.56
             201.34,133.86 200.53,135.63 200.43,137.50
             200.33,139.37 200.94,141.21 202.14,142.65
             203.45,144.11 205.30,144.96 207.26,145.02
             209.22,145.07 211.11,144.31 212.50,142.93
             212.50,142.93 220.40,135.03 220.40,135.03
             218.12,155.20 206.67,173.20 189.37,183.82
             172.07,194.44 150.84,196.50 131.82,189.41
             112.80,182.31 98.11,166.85 91.99,147.49
             85.87,128.13 89.01,107.04 100.50,90.30
             111.99,73.56 130.55,63.05 150.82,61.80
             171.08,60.55 190.79,68.71 204.25,83.91
             205.45,85.33 207.14,86.24 208.99,86.46
             210.84,86.69 212.70,86.21 214.21,85.13
             215.77,83.92 216.76,82.13 216.95,80.17
             217.14,78.21 216.51,76.26 215.21,74.78
             212.31,71.47 209.13,68.40 205.72,65.61
             205.72,65.61 210.88,57.84 210.88,57.84
             212.06,56.07 212.49,53.90 212.08,51.81
             211.65,49.72 210.42,47.89 208.65,46.71
             206.88,45.53 204.71,45.11 202.62,45.53
             200.53,45.95 198.70,47.18 197.52,48.96
             197.52,48.96 192.35,56.73 192.35,56.73
             183.20,51.89 173.19,48.87 162.88,47.83
             162.88,47.83 162.88,34.64 162.88,34.64
             162.88,34.64 165.56,34.64 165.56,34.64
             167.73,34.64 169.81,33.78 171.34,32.25
             172.88,30.72 173.74,28.64 173.74,26.47
             173.74,24.30 172.88,22.22 171.34,20.68
             169.81,19.15 167.73,18.29 165.56,18.29
             165.56,18.29 144.16,18.29 144.16,18.29
             144.16,18.29 144.17,18.29 144.17,18.29
             142.00,18.29 139.91,19.15 138.38,20.68
             136.84,22.22 135.98,24.30 135.98,26.47
             135.98,28.64 136.84,30.72 138.38,32.25
             139.91,33.78 142.00,34.64 144.17,34.64
             144.17,34.64 146.84,34.64 146.84,34.64
             146.84,34.64 146.84,47.82 146.84,47.82
             146.84,47.82 146.84,47.82 146.84,47.82
             136.53,48.85 126.52,51.88 117.37,56.74
             117.37,56.74 112.20,48.96 112.20,48.96
             110.61,46.58 107.87,45.21 105.01,45.40
             102.16,45.58 99.61,47.27 98.33,49.84
             97.06,52.40 97.25,55.46 98.84,57.84
             98.84,57.84 104.02,65.63 104.02,65.63
             104.02,65.63 104.02,65.63 104.02,65.63
             90.31,76.87 80.71,92.34 76.72,109.61
             72.73,126.88 74.57,144.99 81.96,161.10
             89.36,177.21 101.88,190.43 117.57,198.67
             133.27,206.91 151.25,209.72 168.71,206.66
             186.17,203.59 202.13,194.83 214.08,181.74
             226.04,168.65 233.32,151.97 234.79,134.30
             234.79,134.30 243.41,142.93 243.41,142.93
             243.41,142.93 243.41,142.93 243.41,142.93
             244.71,144.22 246.45,144.97 248.28,145.02
             250.11,145.06 251.89,144.40 253.24,143.17
             254.67,141.78 255.47,139.87 255.47,137.87
             255.47,135.87 254.66,133.96 253.23,132.57
             253.23,132.57 253.23,132.57 253.23,132.57 Z" />
  </symbol>
</svg>