<?xml version="1.0" encoding="UTF-8" standalone="no"?>
<!DOCTYPE svg PUBLIC "-//W3C//DTD SVG 20010904//EN"
              "http://www.w3.org/TR/2001/REC-SVG-20010904/DTD/svg10.dtd">

<svg xmlns="http://www.w3.org/2000/svg" viewBox="0 0 256 256">
  <symbol id="icon" viewBox="0 0 256 256">
    <path
            d="M 80.28,129.80
             C 79.69,136.00 81.73,142.17 85.92,146.79
               90.11,151.40 96.05,154.03 102.29,154.04
               102.29,154.04 162.65,154.04 162.65,154.04
               165.02,154.05 167.30,154.99 168.98,156.67
               170.66,158.36 171.61,160.63 171.62,163.01
               171.62,163.01 171.62,165.83 171.62,165.83
               171.62,165.83 75.35,165.83 75.35,165.83
               72.93,165.83 70.97,167.79 70.97,170.21
               70.97,170.21 70.97,203.69 70.97,203.69
               70.97,203.69 70.97,203.69 70.97,203.69
               70.97,206.11 72.93,208.08 75.35,208.08
               75.35,208.08 180.39,208.08 180.39,208.08
               182.81,208.08 184.77,206.11 184.77,203.69
               184.77,203.69 184.77,162.99 184.77,162.99
               184.75,157.13 182.42,151.52 178.28,147.38
               174.14,143.23 168.52,140.90 162.67,140.88
               162.67,140.88 102.68,140.88 102.68,140.88
               100.42,140.92 98.22,140.12 96.50,138.64
               94.78,137.16 93.67,135.09 93.38,132.85
               93.13,130.32 93.95,127.81 95.64,125.93
               97.34,124.05 99.75,122.97 102.28,122.96
               102.28,122.96 114.72,122.96 114.72,122.96
               119.95,122.96 124.97,120.88 128.67,117.18
               132.37,113.48 134.45,108.46 134.46,103.23
               134.46,103.23 134.46,95.37 134.46,95.37
               134.46,93.63 133.76,91.96 132.53,90.72
               131.29,89.49 129.62,88.80 127.88,88.80
               126.13,88.80 124.46,89.49 123.22,90.72
               121.99,91.96 121.30,93.63 121.30,95.37
               121.30,95.37 121.30,103.23 121.30,103.23
               121.29,106.86 118.35,109.80 114.72,109.81
               114.72,109.81 102.95,109.81 102.95,109.81
               97.37,109.74 91.96,111.75 87.77,115.44
               83.58,119.14 80.91,124.25 80.28,129.80
               80.28,129.80 80.28,129.80 80.28,129.80 Z
             M 112.27,53.89
             C 112.27,53.89 116.50,53.89 116.50,53.89
               116.50,53.89 116.50,56.86 116.50,56.86
               116.50,57.44 116.73,58.00 117.14,58.41
               117.55,58.82 118.11,59.05 118.69,59.05
               118.69,59.05 122.39,59.05 122.39,59.05
               122.39,59.05 122.39,71.99 122.39,71.99
               122.33,74.88 124.44,77.36 127.31,77.76
               128.85,77.91 130.39,77.41 131.55,76.37
               132.70,75.33 133.36,73.85 133.36,72.30
               133.36,72.30 133.36,59.05 133.36,59.05
               133.36,59.05 137.06,59.05 137.06,59.05
               138.27,59.05 139.25,58.07 139.25,56.86
               139.25,56.86 139.25,53.89 139.25,53.89
               139.25,53.89 143.48,53.89 143.48,53.89
               144.69,53.89 145.67,52.91 145.67,51.69
               145.67,51.69 145.67,13.96 145.67,13.96
               145.67,12.75 144.69,11.76 143.48,11.76
               143.48,11.76 112.27,11.76 112.27,11.76
               111.69,11.76 111.14,12.00 110.72,12.41
               110.31,12.82 110.08,13.37 110.08,13.96
               110.08,13.96 110.08,51.69 110.08,51.69
               110.08,52.28 110.31,52.83 110.72,53.25
               111.14,53.66 111.69,53.89 112.27,53.89
               112.27,53.89 112.27,53.89 112.27,53.89 Z
             M 252.95,224.40
             C 252.95,224.40 235.95,224.40 235.95,224.40
               235.95,224.40 235.95,37.71 235.95,37.71
               235.95,37.71 248.56,37.71 248.56,37.71
               252.19,37.71 255.13,34.76 255.13,31.13
               255.13,27.50 252.19,24.56 248.56,24.55
               248.56,24.55 235.95,24.55 235.95,24.55
               235.95,24.55 235.95,3.31 235.95,3.31
               235.95,2.73 235.72,2.18 235.31,1.76
               234.89,1.35 234.34,1.12 233.75,1.12
               233.75,1.12 217.31,1.12 217.31,1.12
               216.73,1.12 216.17,1.35 215.76,1.76
               215.34,2.18 215.11,2.73 215.11,3.31
               215.11,3.31 215.11,24.55 215.11,24.55
               215.11,24.55 204.91,24.55 204.91,24.55
               204.91,24.55 204.91,17.15 204.91,17.15
               204.91,15.63 204.30,14.16 203.22,13.08
               202.14,11.99 200.68,11.39 199.15,11.39
               197.62,11.39 196.15,11.99 195.07,13.08
               193.99,14.16 193.39,15.63 193.39,17.15
               193.39,17.15 193.39,24.55 193.39,24.55
               193.39,24.55 158.83,24.55 158.83,24.55
               158.83,24.55 158.83,37.71 158.83,37.71
               158.83,37.71 193.39,37.71 193.39,37.71
               193.39,37.71 193.39,45.12 193.39,45.12
               193.39,46.64 193.99,48.11 195.07,49.19
               196.15,50.27 197.62,50.88 199.15,50.88
               200.68,50.88 202.14,50.27 203.22,49.19
               204.30,48.11 204.91,46.64 204.91,45.12
               204.91,45.12 204.91,37.71 204.91,37.71
               204.91,37.71 215.11,37.71 215.11,37.71
               215.11,37.71 215.11,224.40 215.11,224.40
               215.11,224.40 40.64,224.40 40.64,224.40
               40.64,224.40 40.64,37.71 40.64,37.71
               40.64,37.71 50.84,37.71 50.84,37.71
               50.84,37.71 50.84,45.12 50.84,45.12
               50.84,46.64 51.45,48.11 52.53,49.19
               53.61,50.27 55.07,50.88 56.60,50.88
               58.13,50.88 59.60,50.27 60.68,49.19
               61.76,48.11 62.36,46.64 62.36,45.12
               62.36,45.12 62.36,37.71 62.36,37.71
               62.36,37.71 96.92,37.71 96.92,37.71
               96.92,37.71 96.92,24.55 96.92,24.55
               96.92,24.55 62.36,24.55 62.36,24.55
               62.36,24.55 62.36,17.15 62.36,17.15
               62.36,15.63 61.76,14.16 60.68,13.08
               59.60,11.99 58.13,11.39 56.60,11.39
               55.07,11.39 53.61,11.99 52.53,13.08
               51.45,14.16 50.84,15.63 50.84,17.15
               50.84,17.15 50.84,24.55 50.84,24.55
               50.84,24.55 40.64,24.55 40.64,24.55
               40.64,24.55 40.64,3.31 40.64,3.31
               40.64,2.73 40.40,2.18 39.99,1.76
               39.58,1.35 39.02,1.12 38.44,1.12
               38.44,1.12 21.99,1.12 21.99,1.12
               21.99,1.12 22.00,1.12 22.00,1.12
               21.41,1.12 20.86,1.35 20.44,1.76
               20.03,2.18 19.80,2.73 19.80,3.31
               19.80,3.31 19.80,24.55 19.80,24.55
               19.80,24.55 7.19,24.55 7.19,24.55
               3.56,24.56 0.62,27.50 0.62,31.13
               0.62,34.76 3.56,37.71 7.19,37.71
               7.19,37.71 19.80,37.71 19.80,37.71
               19.80,37.71 19.80,224.40 19.80,224.40
               19.80,224.40 2.80,224.40 2.80,224.40
               2.22,224.40 1.67,224.63 1.25,225.04
               0.84,225.45 0.61,226.01 0.61,226.59
               0.61,226.59 0.61,243.04 0.61,243.04
               0.61,243.04 0.61,243.04 0.61,243.04
               0.61,243.62 0.84,244.18 1.25,244.59
               1.67,245.00 2.22,245.23 2.80,245.23
               2.80,245.23 24.19,245.23 24.19,245.23
               24.19,247.99 25.29,250.64 27.24,252.60
               29.19,254.55 31.84,255.65 34.61,255.65
               34.61,255.65 47.76,255.65 47.76,255.65
               50.53,255.65 53.18,254.55 55.13,252.60
               57.08,250.64 58.18,247.99 58.18,245.23
               58.18,245.23 197.57,245.23 197.57,245.23
               197.57,247.99 198.67,250.64 200.62,252.60
               202.58,254.55 205.22,255.65 207.99,255.65
               207.99,255.65 221.15,255.65 221.15,255.65
               223.91,255.65 226.56,254.55 228.51,252.60
               230.47,250.64 231.56,247.99 231.56,245.23
               231.56,245.23 252.95,245.23 252.95,245.23
               253.53,245.23 254.08,245.00 254.50,244.59
               254.91,244.18 255.14,243.62 255.14,243.04
               255.14,243.04 255.14,226.59 255.14,226.59
               255.14,226.59 255.14,226.59 255.14,226.59
               255.14,226.01 254.91,225.45 254.50,225.04
               254.08,224.63 253.53,224.40 252.95,224.40
               252.95,224.40 252.95,224.40 252.95,224.40 Z" />
  </symbol>
</svg>
