<?xml version="1.0" encoding="UTF-8" standalone="no"?>
<!DOCTYPE svg PUBLIC "-//W3C//DTD SVG 20010904//EN"
        "http://www.w3.org/TR/2001/REC-SVG-20010904/DTD/svg10.dtd">

<svg xmlns="http://www.w3.org/2000/svg" viewBox="0 0 256 256">
  <symbol id="icon" viewBox="0 0 256 256">
    <path
            d="M 38.55,75.94
           C 35.03,82.07 37.14,89.89 43.27,93.41
             49.40,96.93 57.22,94.82 60.74,88.69
             67.68,76.67 77.57,66.95 89.20,60.24
             89.20,60.24 89.25,60.27 89.25,60.27
             89.48,60.14 89.71,59.99 89.93,59.85
             101.36,53.40 114.47,49.85 128.14,49.85
             128.14,49.85 128.14,49.80 128.14,49.80
             149.58,49.80 169.03,58.52 183.14,72.63
             192.60,82.10 199.64,94.00 203.24,107.31
             203.24,107.31 186.60,99.58 186.60,99.58
             180.17,96.61 172.55,99.42 169.58,105.85
             166.62,112.29 169.43,119.91 175.86,122.87
             175.86,122.87 194.63,131.60 194.63,131.60
             194.63,131.60 213.36,140.31 213.36,140.31
             213.36,140.31 213.35,140.34 213.35,140.34
             219.33,143.12 226.36,140.90 229.72,135.40
             229.72,135.40 253.04,102.17 253.04,102.17
             257.11,96.38 255.72,88.38 249.93,84.30
             244.13,80.23 236.13,81.62 232.05,87.41
             232.05,87.41 226.48,95.35 226.48,95.35
             221.37,79.76 212.65,65.80 201.31,54.45
             182.61,35.76 156.74,24.19 128.14,24.19
             110.03,24.19 92.55,28.91 77.24,37.56
             76.95,37.70 76.67,37.85 76.39,38.01
             76.39,38.01 76.39,38.04 76.39,38.04
             76.39,38.04 76.41,38.07 76.41,38.07
             60.94,47.00 47.79,59.94 38.55,75.94
             38.55,75.94 38.55,75.94 38.55,75.94 Z
           M 217.73,179.32
           C 221.25,173.19 219.14,165.37 213.01,161.85
             206.88,158.33 199.06,160.44 195.54,166.57
             188.60,178.59 178.71,188.31 167.08,195.02
             167.08,195.02 167.03,194.99 167.03,194.99
             166.80,195.12 166.57,195.27 166.35,195.41
             154.92,201.86 141.81,205.41 128.14,205.41
             128.14,205.41 128.14,205.46 128.14,205.46
             106.70,205.46 87.25,196.73 73.15,182.63
             63.64,173.13 56.59,161.18 53.01,147.82
             53.01,147.82 69.68,155.57 69.68,155.57
             76.11,158.53 83.73,155.72 86.70,149.29
             89.66,142.86 86.85,135.24 80.42,132.27
             80.42,132.27 43.66,115.17 43.66,115.17
             38.00,112.08 30.79,113.67 26.99,119.08
             26.99,119.08 27.01,119.09 27.01,119.09
             27.01,119.09 15.13,136.02 15.13,136.02
             15.13,136.02 3.24,152.97 3.24,152.97
             -0.84,158.76 0.56,166.77 6.35,170.84
             12.15,174.92 20.15,173.52 24.22,167.73
             24.22,167.73 29.77,159.83 29.77,159.83
             34.88,175.46 43.61,189.44 54.97,200.81
             73.67,219.50 99.53,231.07 128.14,231.07
             128.14,231.07 128.14,231.12 128.14,231.12
             146.25,231.12 163.72,226.35 179.04,217.70
             179.32,217.56 179.60,217.41 179.88,217.25
             179.88,217.25 179.87,217.22 179.87,217.22
             179.87,217.22 179.88,217.22 179.88,217.22
             179.88,217.22 179.87,217.19 179.87,217.19
             195.33,208.26 208.49,195.32 217.73,179.32
             217.73,179.32 217.73,179.32 217.73,179.32 Z" />
  </symbol>
</svg>