<?xml version="1.0" encoding="UTF-8" standalone="no"?>
<!DOCTYPE svg PUBLIC "-//W3C//DTD SVG 20010904//EN"
        "http://www.w3.org/TR/2001/REC-SVG-20010904/DTD/svg10.dtd">

<svg xmlns="http://www.w3.org/2000/svg" viewBox="0 0 256 256">
  <symbol id="icon" viewBox="0 0 256 256">
    <path
            d="M 127.88,254.75
           C 94.36,254.75 62.21,241.44 38.51,217.74
             14.81,194.03 1.49,161.89 1.49,128.37
             1.49,94.85 14.81,62.70 38.51,39.00
             62.21,15.30 94.36,1.98 127.88,1.98
             161.39,1.98 193.54,15.30 217.24,39.00
             240.94,62.70 254.26,94.85 254.26,128.37
             254.22,161.88 240.90,194.00 217.20,217.69
             193.51,241.39 161.38,254.72 127.88,254.75 Z
           M 127.88,19.62
           C 99.03,19.62 71.37,31.08 50.98,51.47
             30.58,71.87 19.13,99.52 19.13,128.37
             19.13,157.21 30.58,184.87 50.98,205.26
             71.37,225.66 99.03,237.11 127.88,237.11
             156.72,237.11 184.38,225.66 204.77,205.26
             225.17,184.87 236.62,157.21 236.62,128.37
             236.59,99.54 225.12,71.90 204.73,51.51
             184.35,31.12 156.70,19.65 127.87,19.62
             127.87,19.62 127.88,19.62 127.88,19.62 Z
           M 196.06,120.95
           C 196.06,120.95 97.53,64.06 97.53,64.06
             95.82,63.08 93.82,62.73 91.87,63.07
             89.93,63.42 88.17,64.44 86.91,65.95
             85.65,67.46 84.96,69.38 84.96,71.35
             84.96,71.35 84.96,184.87 84.96,184.87
             84.96,187.86 86.56,190.63 89.15,192.12
             91.74,193.62 94.94,193.62 97.53,192.12
             97.53,192.12 195.84,135.36 195.84,135.36
             197.55,134.38 198.85,132.83 199.53,130.98
             200.20,129.13 200.20,127.10 199.53,125.25
             198.85,123.39 197.55,121.84 195.84,120.86
             195.84,120.86 97.30,63.93 97.30,63.93
             94.76,62.46 91.62,62.46 89.08,63.93
             86.53,65.40 84.96,68.12 84.96,71.05
             84.96,71.05 84.96,185.09 84.96,185.09
             84.96,188.03 86.53,190.75 89.08,192.22
             91.62,193.69 94.76,193.69 97.30,192.22
             97.30,192.22 196.06,135.20 196.06,135.20
             196.06,135.20 196.06,135.20 196.06,135.20
             198.61,133.73 200.17,131.01 200.17,128.07
             200.17,125.14 198.61,122.42 196.06,120.95
             196.06,120.95 196.06,120.95 196.06,120.95 Z" />
  </symbol>
</svg>