<?xml version="1.0" encoding="UTF-8" standalone="no"?>
<!DOCTYPE svg PUBLIC "-//W3C//DTD SVG 20010904//EN"
        "http://www.w3.org/TR/2001/REC-SVG-20010904/DTD/svg10.dtd">

<svg xmlns="http://www.w3.org/2000/svg" viewBox="0 0 256 256">
  <symbol id="icon" viewBox="0 0 256 256">
    <path
            d="M 232.41,114.63
           C 232.41,114.63 41.33,4.30 41.33,4.30
             38.03,2.38 34.15,1.69 30.39,2.35
             26.63,3.01 23.22,4.98 20.76,7.90
             18.30,10.83 16.96,14.52 16.96,18.34
             16.96,18.34 16.96,238.52 16.96,238.52
             16.94,242.35 18.27,246.06 20.73,249.00
             23.18,251.94 26.59,253.92 30.36,254.60
             34.13,255.27 38.01,254.59 41.33,252.68
             41.33,252.68 231.98,142.51 231.98,142.51
             235.29,140.60 237.82,137.59 239.13,134.00
             240.44,130.41 240.44,126.47 239.13,122.88
             237.82,119.30 235.29,116.28 231.98,114.38
             231.98,114.38 40.90,4.16 40.90,4.16
             35.98,1.32 29.93,1.31 25.00,4.12
             20.07,6.94 17.01,12.16 16.95,17.84
             16.95,17.84 16.95,239.00 16.95,239.00
             16.96,244.70 20.00,249.96 24.94,252.81
             29.88,255.66 35.96,255.66 40.90,252.81
             40.90,252.81 232.41,142.23 232.41,142.23
             237.34,139.38 240.37,134.12 240.37,128.43
             240.37,122.74 237.34,117.48 232.41,114.62
             232.41,114.62 232.41,114.63 232.41,114.63 Z" />
  </symbol>
</svg>