<?xml version="1.0" encoding="UTF-8" standalone="no"?>
<!DOCTYPE svg PUBLIC "-//W3C//DTD SVG 20010904//EN"
        "http://www.w3.org/TR/2001/REC-SVG-20010904/DTD/svg10.dtd">

<svg xmlns="http://www.w3.org/2000/svg" viewBox="0 0 256 256">
  <symbol id="icon" viewBox="0 0 256 256">
    <path
            d="M 66.73,18.36
           C 51.14,18.36 37.95,29.21 34.16,43.70
             34.16,43.70 9.66,43.70 9.66,43.70
             5.25,43.93 1.44,48.16 1.67,52.59
             1.90,57.01 6.12,60.83 10.54,60.60
             10.54,60.60 34.16,60.60 34.16,60.60
             37.93,75.11 51.12,85.94 66.73,85.94
             82.34,85.94 95.52,75.11 99.30,60.60
             99.30,60.60 246.55,60.60 246.55,60.60
             251.00,60.66 255.09,56.61 255.09,52.15
             255.09,47.68 251.00,43.64 246.55,43.70
             246.55,43.70 99.30,43.70 99.30,43.70
             95.51,29.21 82.32,18.36 66.73,18.36
             66.73,18.36 66.73,18.36 66.73,18.36 Z
           M 66.73,35.25
           C 76.14,35.25 83.59,42.72 83.59,52.15
             83.59,61.58 76.14,69.05 66.73,69.05
             57.32,69.05 49.87,61.58 49.87,52.15
             49.87,42.72 57.32,35.25 66.73,35.25
             66.73,35.25 66.73,35.25 66.73,35.25 Z
           M 190.35,94.39
           C 174.76,94.39 161.57,105.24 157.78,119.73
             157.78,119.73 9.66,119.73 9.66,119.73
             5.24,119.96 1.44,124.20 1.67,128.62
             1.90,133.04 6.12,136.86 10.53,136.63
             10.53,136.63 157.78,136.63 157.78,136.63
             161.56,151.14 174.74,161.97 190.35,161.97
             205.96,161.97 219.15,151.14 222.93,136.63
             222.93,136.63 246.54,136.63 246.54,136.63
             251.00,136.69 255.09,132.64 255.09,128.18
             255.09,123.72 251.00,119.67 246.54,119.73
             246.54,119.73 222.93,119.73 222.93,119.73
             219.13,105.24 205.94,94.39 190.35,94.39
             190.35,94.39 190.35,94.39 190.35,94.39 Z
           M 190.35,111.28
           C 199.76,111.28 207.21,118.75 207.21,128.18
             207.21,137.61 199.76,145.08 190.35,145.08
             180.94,145.08 173.50,137.61 173.50,128.18
             173.50,118.75 180.94,111.28 190.35,111.28
             190.35,111.28 190.35,111.28 190.35,111.28 Z
           M 66.73,170.42
           C 51.14,170.42 37.95,181.27 34.16,195.76
             34.16,195.76 9.66,195.76 9.66,195.76
             5.25,195.99 1.44,200.23 1.67,204.65
             1.90,209.07 6.13,212.89 10.54,212.66
             10.54,212.66 34.16,212.66 34.16,212.66
             37.94,227.17 51.12,238.00 66.73,238.00
             82.34,238.00 95.53,227.17 99.30,212.66
             99.30,212.66 246.55,212.66 246.55,212.66
             251.00,212.72 255.10,208.68 255.10,204.21
             255.10,199.75 251.00,195.70 246.55,195.76
             246.55,195.76 99.30,195.76 99.30,195.76
             95.51,181.27 82.32,170.42 66.73,170.42
             66.73,170.42 66.73,170.42 66.73,170.42 Z
           M 66.73,187.32
           C 76.14,187.32 83.59,194.78 83.59,204.21
             83.59,213.65 76.14,221.11 66.73,221.11
             57.32,221.11 49.87,213.65 49.87,204.21
             49.87,194.78 57.32,187.32 66.73,187.32
             66.73,187.32 66.73,187.32 66.73,187.32 Z" />
  </symbol>
</svg>