<?xml version="1.0" encoding="UTF-8" standalone="no"?>
<!DOCTYPE svg PUBLIC "-//W3C//DTD SVG 20010904//EN"
        "http://www.w3.org/TR/2001/REC-SVG-20010904/DTD/svg10.dtd">

<svg xmlns="http://www.w3.org/2000/svg" viewBox="0 0 256 256">
  <symbol id="icon" viewBox="0 0 256 256">
    <path
            d="M 117.80,87.41
           C 129.74,88.21 141.16,91.39 151.52,96.17
             160.82,89.00 171.44,81.04 184.18,71.48
             163.47,60.86 140.37,55.81 117.80,57.14
             84.34,59.00 52.74,74.40 31.76,98.30
             14.23,117.68 3.88,142.64 1.75,167.60
             1.49,170.53 3.88,173.18 6.80,173.18
             9.19,173.18 11.31,171.32 11.84,169.20
             16.62,146.89 28.57,126.45 45.30,112.11
             65.48,94.05 92.30,85.55 117.80,87.41
             117.80,87.41 117.80,87.41 117.80,87.41 Z
           M 217.11,95.91
           C 206.75,109.45 197.99,121.14 190.56,130.96
             197.73,142.65 201.97,155.66 203.30,168.67
             203.57,171.06 205.69,173.18 208.35,173.18
             208.35,173.18 248.98,173.18 248.98,173.18
             252.16,173.18 254.55,170.26 254.02,167.08
             248.98,139.99 235.97,114.76 217.11,95.91
             217.11,95.91 217.11,95.91 217.11,95.91 Z
           M 211.80,77.32
           C 213.92,74.40 210.47,70.95 207.55,73.07
             185.51,89.80 147.01,118.75 125.23,135.74
             122.84,135.21 120.45,134.68 117.79,134.68
             100.00,134.94 85.40,149.55 85.40,167.34
             85.40,185.13 99.74,199.74 117.79,199.74
             135.85,199.74 150.19,185.40 150.19,167.34
             150.19,164.69 149.93,162.30 149.13,159.91
             166.13,137.87 195.07,99.63 211.80,77.32
             211.80,77.32 211.80,77.32 211.80,77.32 Z" />
  </symbol>
</svg>