<?xml version="1.0" encoding="UTF-8" standalone="no"?>
<!DOCTYPE svg PUBLIC "-//W3C//DTD SVG 20010904//EN"
        "http://www.w3.org/TR/2001/REC-SVG-20010904/DTD/svg10.dtd">

<svg xmlns="http://www.w3.org/2000/svg" viewBox="0 0 256 256">
  <symbol id="icon" viewBox="0 0 256 256">
    <path
            d="M 127.94,254.52
           C 94.55,254.47 62.55,241.17 38.97,217.53
             15.40,193.89 2.18,161.85 2.22,128.46
             2.27,95.08 15.58,63.08 39.22,39.50
             62.86,15.92 94.89,2.70 128.28,2.75
             161.67,2.79 193.67,16.10 217.24,39.74
             240.82,63.38 254.04,95.42 254.00,128.81
             253.91,162.18 240.59,194.16 216.96,217.73
             193.33,241.30 161.32,254.53 127.94,254.52 Z
           M 128.26,20.32
           C 99.53,20.28 71.96,31.65 51.62,51.94
             31.28,72.22 19.83,99.76 19.79,128.49
             19.75,157.21 31.13,184.78 51.41,205.12
             71.70,225.46 99.23,236.91 127.96,236.95
             156.69,236.99 184.26,225.62 204.60,205.33
             224.94,185.04 236.39,157.51 236.43,128.78
             236.43,100.06 225.05,72.52 204.77,52.18
             184.49,31.85 156.97,20.39 128.26,20.32
             128.26,20.32 128.26,20.32 128.26,20.32 Z
           M 77.25,69.43
           C 77.25,69.43 179.13,69.57 179.13,69.57
             183.66,69.57 187.32,74.10 187.32,77.78
             187.32,77.78 187.18,179.66 187.18,179.66
             187.17,184.18 183.50,187.85 178.97,187.84
             178.97,187.84 77.09,187.70 77.09,187.70
             72.56,187.70 68.90,183.17 68.90,179.50
             68.90,179.50 69.04,77.61 69.04,77.61
             69.05,73.09 72.72,69.42 77.25,69.43
             77.25,69.43 77.25,69.43 77.25,69.43 Z" />
  </symbol>
</svg>