<?xml version="1.0" encoding="UTF-8" standalone="no"?>
<!DOCTYPE svg PUBLIC "-//W3C//DTD SVG 20010904//EN"
        "http://www.w3.org/TR/2001/REC-SVG-20010904/DTD/svg10.dtd">

<svg xmlns="http://www.w3.org/2000/svg" viewBox="0 0 256 256">
  <symbol id="icon" viewBox="0 0 256 256">
    <path
            d="M 127.59,254.58
           C 113.46,254.60 100.00,248.55 90.64,237.97
             81.28,227.39 76.92,213.29 78.67,199.27
             80.41,185.25 88.10,172.66 99.77,164.70
             99.77,164.70 99.77,29.88 99.77,29.88
             99.77,19.94 105.07,10.76 113.68,5.79
             122.29,0.82 132.89,0.82 141.50,5.79
             150.11,10.76 155.41,19.94 155.41,29.88
             155.41,29.88 155.41,164.79 155.41,164.79
             167.08,172.75 174.77,185.34 176.52,199.36
             178.26,213.38 173.90,227.48 164.54,238.06
             155.18,248.64 141.72,254.69 127.59,254.66
             127.59,254.66 127.59,254.58 127.59,254.58 Z
           M 127.59,14.99
           C 123.62,14.99 119.81,16.57 117.00,19.37
             114.19,22.19 112.61,26.00 112.61,29.97
             112.61,29.97 112.61,172.10 112.61,172.10
             112.61,172.10 109.40,173.99 109.40,173.99
             100.09,179.37 93.63,188.59 91.76,199.18
             89.90,209.77 92.81,220.64 99.72,228.88
             106.63,237.12 116.84,241.87 127.59,241.87
             138.34,241.87 148.55,237.12 155.46,228.88
             162.37,220.64 165.28,209.77 163.42,199.18
             161.55,188.59 155.09,179.37 145.78,173.99
             145.78,173.99 142.57,172.10 142.57,172.10
             142.57,172.10 142.57,29.97 142.57,29.97
             142.57,26.00 140.99,22.19 138.18,19.37
             135.37,16.57 131.56,14.99 127.59,14.99
             127.59,14.99 127.59,14.99 127.59,14.99 Z
           M 142.57,179.42
           C 138.60,177.14 136.16,172.91 136.15,168.34
             136.15,168.34 136.15,68.40 136.15,68.40
             136.15,68.40 119.03,68.40 119.03,68.40
             119.03,68.40 119.03,168.34 119.03,168.34
             119.02,172.91 116.57,177.14 112.61,179.42
             104.94,183.85 99.62,191.45 98.08,200.17
             96.55,208.89 98.95,217.84 104.64,224.63
             110.33,231.41 118.73,235.33 127.59,235.33
             136.44,235.33 144.85,231.41 150.54,224.63
             156.23,217.84 158.63,208.89 157.09,200.17
             155.55,191.45 150.24,183.85 142.57,179.42
             142.57,179.42 142.57,179.42 142.57,179.42 Z" />
  </symbol>
</svg>