<?xml version="1.0" encoding="UTF-8" standalone="no"?>
<!DOCTYPE svg PUBLIC "-//W3C//DTD SVG 20010904//EN"
        "http://www.w3.org/TR/2001/REC-SVG-20010904/DTD/svg10.dtd">

<svg xmlns="http://www.w3.org/2000/svg" viewBox="0 0 256 256">
  <symbol id="icon" viewBox="0 0 256 256">
    <path
            d="M 250.52,194.48
           C 245.19,198.99 237.22,198.34 232.70,193.02
             232.70,193.02 147.44,92.60 147.44,92.60
             142.50,87.19 135.50,84.10 128.16,84.10
             120.83,84.10 113.83,87.19 108.89,92.60
             108.89,92.60 23.64,193.02 23.64,193.02
             19.12,198.31 11.17,198.94 5.86,194.43
             0.55,189.93 -0.12,181.98 4.37,176.65
             4.37,176.65 89.62,76.23 89.62,76.23
             99.51,65.41 113.50,59.23 128.16,59.23
             142.83,59.23 156.82,65.41 166.71,76.23
             166.71,76.23 251.98,176.65 251.98,176.65
             256.50,181.98 255.84,189.95 250.52,194.48
             250.52,194.48 250.52,194.48 250.52,194.48 Z" />
  </symbol>
</svg>