<?xml version="1.0" encoding="UTF-8" standalone="no"?>
<!DOCTYPE svg PUBLIC "-//W3C//DTD SVG 20010904//EN"
        "http://www.w3.org/TR/2001/REC-SVG-20010904/DTD/svg10.dtd">

<svg xmlns="http://www.w3.org/2000/svg" viewBox="0 0 256 256">
  <symbol id="icon" viewBox="0 0 256 256">
    <path
            d="M 106.27,174.74
           C 102.54,171.02 96.42,171.02 92.70,174.74
             88.97,178.47 88.97,184.59 92.70,188.32
             92.70,188.32 121.70,217.32 121.70,217.32
             125.43,221.05 131.55,221.05 135.27,217.32
             135.27,217.32 164.28,188.32 164.28,188.32
             166.14,186.45 166.94,184.06 166.94,181.66
             166.94,179.27 165.87,176.87 164.28,175.01
             160.55,171.28 154.43,171.28 150.71,175.01
             150.71,175.01 137.93,187.78 137.93,187.78
             137.93,187.78 137.93,69.37 137.93,69.37
             137.93,69.37 150.71,82.14 150.71,82.14
             154.43,85.87 160.55,85.87 164.28,82.14
             168.00,78.41 168.00,72.29 164.28,68.57
             164.28,68.57 135.27,39.56 135.27,39.56
             131.55,35.84 125.43,35.84 121.70,39.56
             121.70,39.56 92.96,68.57 92.96,68.57
             91.10,70.43 90.30,72.83 90.30,75.22
             90.30,77.62 91.10,80.01 92.96,81.87
             96.69,85.60 102.81,85.60 106.53,81.87
             106.53,81.87 119.31,69.10 119.31,69.10
             119.31,69.10 119.31,187.25 119.31,187.25
             119.31,187.25 106.27,174.74 106.27,174.74 Z
           M 175.72,2.04
           C 175.72,2.04 81.52,2.04 81.52,2.04
             79.39,2.04 77.53,3.91 77.53,6.04
             77.53,6.04 77.53,16.95 77.53,16.95
             77.53,19.07 79.39,20.94 81.52,20.94
             81.52,20.94 175.45,20.94 175.45,20.94
             177.58,20.94 179.44,19.07 179.44,16.95
             179.44,16.95 179.45,6.04 179.45,6.04
             179.71,3.91 177.85,2.04 175.72,2.04
             175.72,2.04 175.72,2.04 175.72,2.04 Z
           M 175.72,235.68
           C 175.72,235.68 81.52,235.68 81.52,235.68
             79.39,235.68 77.53,237.55 77.53,239.67
             77.53,239.67 77.53,250.85 77.53,250.85
             77.53,252.98 79.39,254.84 81.52,254.84
             81.52,254.84 175.45,254.84 175.45,254.84
             177.58,254.84 179.44,252.98 179.44,250.85
             179.44,250.85 179.44,239.94 179.44,239.94
             179.71,237.55 177.85,235.68 175.72,235.68
             175.72,235.68 175.72,235.68 175.72,235.68 Z" />
  </symbol>
</svg>